<svg width="1136" height="109" xmlns="http://www.w3.org/2000/svg" xmlns:xlink="http://www.w3.org/1999/xlink" overflow="hidden"><defs><clipPath id="clip0"><rect x="19" y="-176" width="1136" height="109"/></clipPath></defs><g clip-path="url(#clip0)" transform="translate(-19 176)"><path d="M554.405-84.8867 554.405-74.6737 562.621-74.6737C564.41-74.6737 565.807-75.1429 566.811-76.0813 567.815-77.0198 568.317-78.2434 568.317-79.7525 568.317-81.2614 567.806-82.4944 566.784-83.4512 565.761-84.408 564.301-84.8867 562.402-84.8867ZM456.965-88.199 475.533-88.199 475.533-81.7951 456.965-81.7951ZM554.405-100.731 554.405-91.2903 561.799-91.2903C563.406-91.2903 564.693-91.7412 565.661-92.6429 566.628-93.5447 567.112-94.6763 567.112-96.0381 567.112-97.3629 566.646-98.4762 565.715-99.3779 564.784-100.28 563.552-100.731 562.018-100.731ZM417.182-101.227C414.773-101.227 412.573-100.657 410.582-99.5161 408.592-98.375 407.022-96.7742 405.872-94.713 404.722-92.6521 404.147-90.2966 404.147-87.6469 404.147-84.997 404.722-82.6415 405.872-80.5806 407.022-78.5195 408.592-76.9186 410.582-75.7778 412.573-74.6367 414.773-74.0663 417.182-74.0663 419.593-74.0663 421.802-74.6367 423.81-75.7778 425.818-76.9186 427.398-78.5195 428.548-80.5806 429.698-82.6415 430.273-84.997 430.273-87.6469 430.273-90.2966 429.698-92.6521 428.548-94.713 427.398-96.7742 425.818-98.375 423.81-99.5161 421.802-100.657 419.593-101.227 417.182-101.227ZM547.011-107.41 562.347-107.41C564.538-107.41 566.555-106.95 568.399-106.03 570.243-105.11 571.695-103.859 572.754-102.276 573.813-100.694 574.342-98.964 574.342-97.0869 574.342-95.0996 573.858-93.379 572.891-91.9252 571.923-90.4714 570.654-89.3581 569.084-88.5854L569.084-88.1437C571.129-87.4076 572.754-86.239 573.959-84.6382 575.164-83.0373 575.766-81.1143 575.766-78.8691 575.766-76.6979 575.191-74.7749 574.041-73.1004 572.891-71.4256 571.339-70.1375 569.385-69.236 567.432-68.3343 565.268-67.8834 562.895-67.8834L547.011-67.8834ZM496.803-107.41 506.333-107.41 516.74-79.6422 517.178-79.6422 527.585-107.41 537.17-107.41 537.17-67.8834 529.831-67.8834 529.831-87.3709 530.269-93.9402 529.831-93.9402 519.862-67.8834 514.111-67.8834 504.088-93.9402 503.649-93.9402 504.088-87.3709 504.088-67.8834 496.803-67.8834ZM363.707-107.41 393.01-107.41 393.01-100.344 382.055-100.344 382.055-67.8834 374.661-67.8834 374.661-100.344 363.707-100.344ZM295.26-107.41 302.599-107.41 302.599-83.1752C302.599-80.4516 303.284-78.2529 304.653-76.5781 306.022-74.9036 307.967-74.0663 310.486-74.0663 313.006-74.0663 314.95-74.9036 316.32-76.5781 317.689-78.2529 318.374-80.4516 318.374-83.1752L318.374-107.41 325.713-107.41 325.713-83.6169C325.713-80.3413 325.092-77.4523 323.851-74.9497 322.609-72.4469 320.838-70.4963 318.538-69.0979 316.237-67.6994 313.554-67 310.486-67 307.419-67 304.744-67.6624 302.462-68.9875 300.18-70.3123 298.409-72.2262 297.149-74.7287 295.889-77.2313 295.26-80.1942 295.26-83.6169ZM417.182-108.294C421.017-108.294 424.495-107.383 427.616-105.561 430.739-103.739 433.194-101.246 434.983-98.0806 436.773-94.9156 437.667-91.4376 437.667-87.6469 437.667-83.856 436.773-80.3782 434.983-77.213 433.194-74.048 430.739-71.5546 427.616-69.7327 424.495-67.9109 421.017-67 417.182-67 413.348-67 409.87-67.9109 406.748-69.7327 403.626-71.5546 401.171-74.048 399.382-77.213 397.592-80.3782 396.698-83.856 396.698-87.6469 396.698-91.4376 397.592-94.9156 399.382-98.0806 401.171-101.246 403.626-103.739 406.748-105.561 409.87-107.383 413.348-108.294 417.182-108.294ZM346.107-108.294C349.648-108.294 352.442-107.456 354.487-105.782 356.532-104.107 357.937-102.147 358.704-99.9025L352.186-97.1422C351.785-98.3567 351.082-99.3779 350.077-100.206 349.073-101.034 347.786-101.448 346.216-101.448 344.609-101.448 343.286-101.071 342.245-100.316 341.204-99.5619 340.684-98.5774 340.684-97.3629 340.684-96.1852 341.177-95.1825 342.163-94.3544 343.149-93.5263 344.774-92.7258 347.038-91.9527L349.502-91.1247C352.898-89.9472 355.5-88.3922 357.307-86.46 359.115-84.5278 360.019-81.9974 360.019-78.8691 360.019-76.2929 359.361-74.1124 358.047-72.3273 356.732-70.5425 355.043-69.2082 352.98-68.3251 350.917-67.4417 348.79-67 346.599-67 343.167-67 340.136-67.9754 337.507-69.9259 334.878-71.8765 333.034-74.6367 331.975-78.2067L338.931-80.967C339.479-78.8691 340.41-77.1946 341.725-75.9432 343.039-74.692 344.682-74.0663 346.654-74.0663 348.298-74.0663 349.703-74.4805 350.872-75.3086 352.04-76.1367 352.624-77.2866 352.624-78.7588 352.624-80.2309 352.068-81.4362 350.954-82.3747 349.84-83.3133 347.859-84.316 345.011-85.3834L342.601-86.2668C340.081-87.1499 337.927-88.5025 336.138-90.3244 334.349-92.1462 333.454-94.437 333.454-97.1972 333.454-99.2584 333.984-101.135 335.042-102.828 336.101-104.521 337.598-105.855 339.534-106.831 341.469-107.806 343.66-108.294 346.107-108.294ZM1112.61-156.893C1111.29-156.893 1110.05-156.552 1108.88-155.871 1107.71-155.191 1106.78-154.224 1106.09-152.973 1105.39-151.722 1105.05-150.286 1105.05-148.667 1105.05-147.048 1105.39-145.612 1106.09-144.361 1106.78-143.11 1107.71-142.134 1108.88-141.435 1110.05-140.736 1111.29-140.386 1112.61-140.386 1113.96-140.386 1115.22-140.736 1116.39-141.435 1117.55-142.134 1118.49-143.11 1119.18-144.361 1119.87-145.612 1120.22-147.048 1120.22-148.667 1120.22-150.286 1119.87-151.722 1119.18-152.973 1118.49-154.224 1117.55-155.191 1116.39-155.871 1115.22-156.552 1113.96-156.893 1112.61-156.893ZM887.858-156.893C886.543-156.893 885.302-156.552 884.133-155.871 882.965-155.191 882.034-154.224 881.34-152.973 880.646-151.722 880.299-150.286 880.299-148.667 880.299-147.048 880.646-145.612 881.34-144.361 882.034-143.11 882.965-142.134 884.133-141.435 885.302-140.736 886.543-140.386 887.858-140.386 889.209-140.386 890.469-140.736 891.637-141.435 892.805-142.134 893.737-143.11 894.43-144.361 895.124-145.612 895.471-147.048 895.471-148.667 895.471-150.286 895.124-151.722 894.43-152.973 893.737-154.224 892.805-155.191 891.637-155.871 890.469-156.552 889.209-156.893 887.858-156.893ZM699.314-156.893C697.999-156.893 696.758-156.552 695.589-155.871 694.421-155.191 693.49-154.224 692.796-152.973 692.102-151.722 691.755-150.286 691.755-148.667 691.755-147.048 692.102-145.612 692.796-144.361 693.49-143.11 694.421-142.134 695.589-141.435 696.758-140.736 697.999-140.386 699.314-140.386 700.665-140.386 701.925-140.736 703.093-141.435 704.262-142.134 705.193-143.11 705.887-144.361 706.58-145.612 706.927-147.048 706.927-148.667 706.927-150.286 706.58-151.722 705.887-152.973 705.193-154.224 704.262-155.191 703.093-155.871 701.925-156.552 700.665-156.893 699.314-156.893ZM664.369-156.893C662.982-156.893 661.704-156.562 660.535-155.899 659.367-155.236 658.427-154.28 657.714-153.028 657.002-151.777 656.646-150.323 656.646-148.667 656.646-147.011 657.002-145.548 657.714-144.278 658.427-143.008 659.367-142.042 660.535-141.38 661.704-140.717 662.982-140.386 664.369-140.386 665.757-140.386 667.035-140.717 668.203-141.38 669.372-142.042 670.303-142.999 670.997-144.251 671.69-145.502 672.037-146.974 672.037-148.667 672.037-150.323 671.69-151.777 670.997-153.028 670.303-154.28 669.372-155.236 668.203-155.899 667.035-156.562 665.757-156.893 664.369-156.893ZM388.226-156.893C386.839-156.893 385.561-156.562 384.392-155.899 383.224-155.236 382.284-154.28 381.571-153.028 380.859-151.777 380.503-150.323 380.503-148.667 380.503-147.011 380.859-145.548 381.571-144.278 382.284-143.008 383.224-142.042 384.392-141.38 385.561-140.717 386.839-140.386 388.226-140.386 389.614-140.386 390.892-140.717 392.06-141.38 393.229-142.042 394.16-142.999 394.854-144.251 395.547-145.502 395.894-146.974 395.894-148.667 395.894-150.323 395.547-151.777 394.854-153.028 394.16-154.28 393.229-155.236 392.06-155.899 390.892-156.562 389.614-156.893 388.226-156.893ZM353.994-156.893C352.606-156.893 351.328-156.562 350.16-155.899 348.991-155.236 348.051-154.28 347.339-153.028 346.627-151.777 346.271-150.323 346.271-148.667 346.271-147.011 346.627-145.548 347.339-144.278 348.051-143.008 348.991-142.042 350.16-141.38 351.328-140.717 352.606-140.386 353.994-140.386 355.381-140.386 356.659-140.717 357.828-141.38 358.996-142.042 359.927-142.999 360.621-144.251 361.315-145.502 361.662-146.974 361.662-148.667 361.662-150.323 361.315-151.777 360.621-153.028 359.927-154.28 358.996-155.236 357.828-155.899 356.659-156.562 355.381-156.893 353.994-156.893ZM422.076-157.058C420.031-157.058 418.296-156.359 416.872-154.96 415.448-153.562 414.736-151.611 414.736-149.109 414.736-146.606 415.448-144.655 416.872-143.257 418.296-141.858 420.031-141.159 422.076-141.159 424.084-141.159 425.8-141.868 427.224-143.284 428.648-144.702 429.36-146.643 429.36-149.109 429.36-151.648 428.657-153.608 427.251-154.988 425.846-156.368 424.12-157.058 422.076-157.058ZM921.762-157.721C920.046-157.721 918.576-157.215 917.353-156.203 916.129-155.191 915.244-153.82 914.696-152.09L928.608-152.09C928.535-152.973 928.216-153.847 927.65-154.712 927.084-155.577 926.299-156.295 925.294-156.865 924.29-157.435 923.113-157.721 921.762-157.721ZM732.342-157.721C730.625-157.721 729.156-157.215 727.932-156.203 726.709-155.191 725.823-153.82 725.276-152.09L739.188-152.09C739.115-152.973 738.795-153.847 738.229-154.712 737.664-155.577 736.878-156.295 735.874-156.865 734.87-157.435 733.692-157.721 732.342-157.721ZM618.233-157.721C616.517-157.721 615.047-157.215 613.824-156.203 612.6-155.191 611.715-153.82 611.167-152.09L625.079-152.09C625.006-152.973 624.687-153.847 624.121-154.712 623.555-155.577 622.77-156.295 621.766-156.865 620.761-157.435 619.584-157.721 618.233-157.721ZM554.332-157.721C552.616-157.721 551.146-157.215 549.923-156.203 548.7-155.191 547.814-153.82 547.266-152.09L561.179-152.09C561.105-152.973 560.786-153.847 560.22-154.712 559.654-155.577 558.869-156.295 557.865-156.865 556.861-157.435 555.683-157.721 554.332-157.721ZM469.892-157.721C468.175-157.721 466.706-157.215 465.482-156.203 464.259-155.191 463.374-153.82 462.826-152.09L476.738-152.09C476.665-152.973 476.345-153.847 475.78-154.712 475.214-155.577 474.428-156.295 473.424-156.865 472.42-157.435 471.243-157.721 469.892-157.721ZM1066.14-162.744 1073.32-162.744 1073.32-146.514C1073.32-144.6 1073.77-143.1 1074.69-142.015 1075.6-140.929 1076.8-140.386 1078.3-140.386 1080.35-140.386 1081.97-141.141 1083.18-142.65 1084.38-144.159 1084.98-146.073 1084.98-148.391L1084.98-162.744 1092.16-162.744 1092.16-134.59 1085.42-134.59 1085.42-138.123 1084.98-138.123C1084.14-136.761 1082.97-135.685 1081.45-134.893 1079.93-134.102 1078.26-133.706 1076.44-133.706 1073.08-133.706 1070.52-134.755 1068.77-136.853 1067.02-138.951 1066.14-141.877 1066.14-145.631ZM842.488-162.744 849.663-162.744 849.663-146.514C849.663-144.6 850.12-143.1 851.033-142.015 851.946-140.929 853.151-140.386 854.648-140.386 856.693-140.386 858.318-141.141 859.522-142.65 860.727-144.159 861.33-146.073 861.33-148.391L861.33-162.744 868.505-162.744 868.505-134.59 861.768-134.59 861.768-138.123 861.33-138.123C860.49-136.761 859.312-135.685 857.797-134.893 856.282-134.102 854.611-133.706 852.785-133.706 849.426-133.706 846.87-134.755 845.117-136.853 843.365-138.951 842.488-141.877 842.488-145.631ZM570.289-162.744 578.45-162.744 585.516-144.416 585.954-144.416 593.129-162.744 601.18-162.744 589.24-134.59 582.12-134.59ZM1142.68-163.628C1148.45-163.628 1152.3-161.585 1154.23-157.5L1148.1-154.795C1147-156.782 1145.25-157.776 1142.84-157.776 1141.6-157.776 1140.61-157.546 1139.88-157.086 1139.15-156.626 1138.79-156.046 1138.79-155.347 1138.79-154.022 1140.03-153.028 1142.51-152.366L1146.62-151.372C1149.39-150.673 1151.49-149.606 1152.89-148.17 1154.3-146.735 1155-144.968 1155-142.871 1155-141.067 1154.48-139.475 1153.44-138.095 1152.4-136.715 1150.97-135.639 1149.17-134.866 1147.36-134.093 1145.36-133.706 1143.17-133.706 1139.77-133.706 1137.03-134.406 1134.93-135.804 1132.83-137.203 1131.36-139.025 1130.52-141.269L1136.93-144.085C1137.51-142.76 1138.34-141.757 1139.42-141.076 1140.49-140.396 1141.74-140.055 1143.17-140.055 1144.48-140.055 1145.58-140.267 1146.46-140.69 1147.33-141.113 1147.77-141.803 1147.77-142.76 1147.77-143.68 1147.37-144.37 1146.56-144.83 1145.76-145.29 1144.56-145.704 1142.95-146.073L1139.66-146.79C1137.4-147.342 1135.52-148.345 1134.02-149.799 1132.52-151.253 1131.78-153.065 1131.78-155.236 1131.78-156.856 1132.26-158.31 1133.23-159.598 1134.2-160.886 1135.51-161.879 1137.17-162.579 1138.83-163.278 1140.67-163.628 1142.68-163.628ZM956.56-163.628C959.92-163.628 962.476-162.597 964.229-160.536 965.981-158.475 966.858-155.66 966.858-152.09L966.858-134.59 959.682-134.59 959.682-151.206C959.682-153.01 959.226-154.408 958.313-155.402 957.4-156.396 956.122-156.893 954.479-156.893 952.544-156.893 950.983-156.138 949.796-154.629 948.609-153.12 948.016-151.225 948.016-148.943L948.016-134.59 940.841-134.59 940.841-162.744 947.578-162.744 947.578-159.211 948.016-159.211C948.856-160.573 950.042-161.65 951.576-162.441 953.11-163.232 954.771-163.628 956.56-163.628ZM921.707-163.628C924.592-163.628 927.075-163.002 929.156-161.751 931.237-160.499 932.817-158.788 933.894-156.617 934.971-154.445 935.51-152.035 935.51-149.385 935.51-148.538 935.455-147.729 935.345-146.956L914.368-146.956C914.733-144.711 915.618-143.008 917.024-141.849 918.43-140.69 920.119-140.11 922.09-140.11 923.734-140.11 925.149-140.469 926.335-141.187 927.522-141.904 928.462-142.871 929.156-144.085L934.962-141.214C932.114-136.209 927.787-133.706 921.981-133.706 919.206-133.706 916.704-134.35 914.477-135.639 912.25-136.927 910.506-138.703 909.246-140.966 907.987-143.229 907.357-145.778 907.357-148.612 907.357-151.298 907.978-153.792 909.219-156.092 910.461-158.393 912.177-160.223 914.368-161.585 916.559-162.947 919.005-163.628 921.707-163.628ZM766.647-163.628C767.925-163.628 769.094-163.407 770.153-162.965L770.153-155.789C769.167-156.157 768.336-156.423 767.66-156.589 766.985-156.755 766.264-156.838 765.497-156.838 763.379-156.838 761.699-156.063 760.458-154.513 759.216-152.964 758.596-151.008 758.596-148.646L758.596-134.59 751.421-134.59 751.421-162.744 758.157-162.744 758.157-158.99 758.596-158.99C759.289-160.315 760.367-161.419 761.827-162.303 763.288-163.186 764.894-163.628 766.647-163.628ZM732.287-163.628C735.171-163.628 737.654-163.002 739.736-161.751 741.817-160.499 743.396-158.788 744.474-156.617 745.551-154.445 746.089-152.035 746.089-149.385 746.089-148.538 746.035-147.729 745.925-146.956L724.947-146.956C725.312-144.711 726.198-143.008 727.604-141.849 729.009-140.69 730.698-140.11 732.67-140.11 734.313-140.11 735.728-140.469 736.915-141.187 738.102-141.904 739.042-142.871 739.736-144.085L745.542-141.214C742.693-136.209 738.366-133.706 732.561-133.706 729.786-133.706 727.284-134.35 725.057-135.639 722.83-136.927 721.086-138.703 719.826-140.966 718.566-143.229 717.936-145.778 717.936-148.612 717.936-151.298 718.557-153.792 719.799-156.092 721.04-158.393 722.756-160.223 724.947-161.585 727.138-162.947 729.584-163.628 732.287-163.628ZM700.574-163.628C703.093-163.628 705.384-162.993 707.448-161.723 709.511-160.453 711.126-158.678 712.295-156.396 713.463-154.114 714.047-151.538 714.047-148.667 714.047-145.76 713.463-143.174 712.295-140.911 711.126-138.647 709.511-136.881 707.448-135.611 705.384-134.341 703.093-133.706 700.574-133.706 698.675-133.706 696.986-134.111 695.507-134.921 694.028-135.731 692.924-136.743 692.194-137.957L691.755-137.957 692.194-133.982 692.194-122.665 685.018-122.665 685.018-162.744 691.755-162.744 691.755-159.322 692.194-159.322C692.96-160.536 694.074-161.558 695.534-162.386 696.995-163.214 698.675-163.628 700.574-163.628ZM664.369-163.628C667.217-163.628 669.773-162.974 672.037-161.668 674.301-160.361 676.063-158.567 677.323-156.286 678.583-154.004 679.213-151.464 679.213-148.667 679.213-145.833 678.583-143.284 677.323-141.021 676.063-138.758 674.301-136.973 672.037-135.666 669.773-134.36 667.217-133.706 664.369-133.706 661.485-133.706 658.91-134.36 656.646-135.666 654.383-136.973 652.621-138.758 651.361-141.021 650.101-143.284 649.471-145.833 649.471-148.667 649.471-151.464 650.101-154.004 651.361-156.286 652.621-158.567 654.383-160.361 656.646-161.668 658.91-162.974 661.485-163.628 664.369-163.628ZM618.178-163.628C621.063-163.628 623.546-163.002 625.627-161.751 627.709-160.499 629.288-158.788 630.365-156.617 631.442-154.445 631.981-152.035 631.981-149.385 631.981-148.538 631.926-147.729 631.816-146.956L610.839-146.956C611.204-144.711 612.089-143.008 613.495-141.849 614.901-140.69 616.59-140.11 618.561-140.11 620.205-140.11 621.62-140.469 622.806-141.187 623.993-141.904 624.933-142.871 625.627-144.085L631.433-141.214C628.585-136.209 624.258-133.706 618.452-133.706 615.677-133.706 613.175-134.35 610.948-135.639 608.721-136.927 606.977-138.703 605.718-140.966 604.458-143.229 603.828-145.778 603.828-148.612 603.828-151.298 604.449-153.792 605.69-156.092 606.932-158.393 608.648-160.223 610.839-161.585 613.03-162.947 615.476-163.628 618.178-163.628ZM554.277-163.628C557.162-163.628 559.645-163.002 561.726-161.751 563.807-160.499 565.387-158.788 566.464-156.617 567.541-154.445 568.08-152.035 568.08-149.385 568.08-148.538 568.025-147.729 567.916-146.956L546.938-146.956C547.303-144.711 548.188-143.008 549.594-141.849 551-140.69 552.689-140.11 554.661-140.11 556.304-140.11 557.719-140.469 558.906-141.187 560.092-141.904 561.032-142.871 561.726-144.085L567.532-141.214C564.684-136.209 560.357-133.706 554.551-133.706 551.776-133.706 549.275-134.35 547.047-135.639 544.82-136.927 543.076-138.703 541.817-140.966 540.557-143.229 539.927-145.778 539.927-148.612 539.927-151.298 540.548-153.792 541.789-156.092 543.031-158.393 544.747-160.223 546.938-161.585 549.129-162.947 551.575-163.628 554.277-163.628ZM469.837-163.628C472.722-163.628 475.205-163.002 477.286-161.751 479.367-160.499 480.947-158.788 482.023-156.617 483.101-154.445 483.639-152.035 483.639-149.385 483.639-148.538 483.584-147.729 483.475-146.956L462.497-146.956C462.863-144.711 463.748-143.008 465.154-141.849 466.56-140.69 468.249-140.11 470.22-140.11 471.863-140.11 473.278-140.469 474.465-141.187 475.652-141.904 476.592-142.871 477.286-144.085L483.092-141.214C480.244-136.209 475.917-133.706 470.111-133.706 467.336-133.706 464.834-134.35 462.607-135.639 460.379-136.927 458.636-138.703 457.376-140.966 456.116-143.229 455.487-145.778 455.487-148.612 455.487-151.298 456.107-153.792 457.349-156.092 458.59-158.393 460.307-160.223 462.497-161.585 464.688-162.947 467.135-163.628 469.837-163.628ZM420.597-163.628C422.422-163.628 424.047-163.297 425.471-162.634 426.896-161.971 428.046-161.015 428.922-159.763L429.36-159.763 429.36-162.744 436.261-162.744 436.261-136.522C436.261-133.504 435.677-130.891 434.509-128.683 433.34-126.475 431.679-124.772 429.524-123.576 427.37-122.38 424.851-121.782 421.966-121.782 418.424-121.782 415.485-122.583 413.148-124.184 410.811-125.784 409.241-127.707 408.437-129.952L415.174-132.713C415.759-131.314 416.653-130.21 417.858-129.4 419.063-128.591 420.432-128.186 421.966-128.186 424.23-128.186 426.028-128.885 427.361-130.284 428.694-131.682 429.36-133.67 429.36-136.246L429.36-138.454 428.922-138.454C428.046-137.203 426.896-136.246 425.471-135.584 424.047-134.921 422.422-134.59 420.597-134.59 418.296-134.59 416.151-135.188 414.161-136.384 412.171-137.58 410.573-139.273 409.368-141.463 408.163-143.653 407.561-146.201 407.561-149.109 407.561-152.016 408.163-154.565 409.368-156.755 410.573-158.945 412.171-160.637 414.161-161.834 416.151-163.03 418.296-163.628 420.597-163.628ZM388.226-163.628C391.074-163.628 393.63-162.974 395.894-161.668 398.158-160.361 399.92-158.567 401.18-156.286 402.44-154.004 403.07-151.464 403.07-148.667 403.07-145.833 402.44-143.284 401.18-141.021 399.92-138.758 398.158-136.973 395.894-135.666 393.63-134.36 391.074-133.706 388.226-133.706 385.342-133.706 382.767-134.36 380.503-135.666 378.24-136.973 376.478-138.758 375.218-141.021 373.958-143.284 373.328-145.833 373.328-148.667 373.328-151.464 373.958-154.004 375.218-156.286 376.478-158.567 378.24-160.361 380.503-161.668 382.767-162.974 385.342-163.628 388.226-163.628ZM353.994-163.628C356.842-163.628 359.398-162.974 361.662-161.668 363.926-160.361 365.688-158.567 366.947-156.286 368.207-154.004 368.837-151.464 368.837-148.667 368.837-145.833 368.207-143.284 366.947-141.021 365.688-138.758 363.926-136.973 361.662-135.666 359.398-134.36 356.842-133.706 353.994-133.706 351.109-133.706 348.535-134.36 346.271-135.666 344.007-136.973 342.245-138.758 340.985-141.021 339.726-143.284 339.096-145.833 339.096-148.667 339.096-151.464 339.726-154.004 340.985-156.286 342.245-158.567 344.007-160.361 346.271-161.668 348.535-162.974 351.109-163.628 353.994-163.628ZM508.761-167.051 508.761-141.656 514.294-141.656C518.529-141.656 521.761-142.788 523.988-145.051 526.216-147.315 527.329-150.415 527.329-154.353 527.329-158.291 526.216-161.392 523.988-163.655 521.761-165.919 518.529-167.051 514.294-167.051ZM975.694-170.694 982.869-170.694 982.869-162.744 989.716-162.744 989.716-156.562 982.869-156.562 982.869-144.584C982.869-143.108 983.18-142.049 983.8-141.405 984.312-140.8 985.188-140.497 986.43-140.497 987.123-140.497 987.698-140.589 988.155-140.773 988.611-140.957 989.204-141.269 989.935-141.711L989.935-134.645C988.365-134.019 986.703-133.706 984.951-133.706 983.563-133.706 982.285-133.922 981.117-134.354 979.948-134.785 978.999-135.376 978.268-136.127 976.552-137.816 975.694-140.218 975.694-143.333L975.694-156.562 970.819-156.562 970.819-162.744 975.694-162.744ZM822.788-170.694 829.964-170.694 829.964-162.744 836.81-162.744 836.81-156.562 829.964-156.562 829.964-144.584C829.964-143.108 830.274-142.049 830.895-141.405 831.406-140.8 832.282-140.497 833.524-140.497 834.218-140.497 834.793-140.589 835.249-140.773 835.706-140.957 836.299-141.269 837.029-141.711L837.029-134.645C835.459-134.019 833.798-133.706 832.045-133.706 830.658-133.706 829.38-133.922 828.211-134.354 827.042-134.785 826.093-135.376 825.363-136.127 823.647-137.816 822.788-140.218 822.788-143.333L822.788-156.562 817.914-156.562 817.914-162.744 822.788-162.744ZM1098.31-174.117 1105.49-174.117 1105.49-163.297 1105.05-159.322 1105.49-159.322C1106.25-160.536 1107.37-161.558 1108.83-162.386 1110.29-163.214 1111.97-163.628 1113.87-163.628 1116.39-163.628 1118.68-162.993 1120.74-161.723 1122.8-160.453 1124.42-158.678 1125.59-156.396 1126.76-154.114 1127.34-151.538 1127.34-148.667 1127.34-145.76 1126.76-143.174 1125.59-140.911 1124.42-138.647 1122.8-136.881 1120.74-135.611 1118.68-134.341 1116.39-133.706 1113.87-133.706 1111.97-133.706 1110.28-134.111 1108.8-134.921 1107.32-135.731 1106.22-136.743 1105.49-137.957L1105.05-137.957 1105.05-134.59 1098.31-134.59ZM1052.67-174.117 1059.84-174.117 1059.84-134.59 1052.67-134.59ZM895.033-174.117 902.153-174.117 902.153-134.59 895.471-134.59 895.471-137.957 895.033-137.957C894.303-136.743 893.198-135.731 891.719-134.921 890.24-134.111 888.552-133.706 886.653-133.706 884.133-133.706 881.842-134.341 879.779-135.611 877.716-136.881 876.091-138.647 874.904-140.911 873.717-143.174 873.124-145.76 873.124-148.667 873.124-151.538 873.717-154.114 874.904-156.396 876.091-158.678 877.716-160.453 879.779-161.723 881.842-162.993 884.133-163.628 886.653-163.628 888.552-163.628 890.231-163.214 891.692-162.386 893.152-161.558 894.266-160.536 895.033-159.322L895.471-159.322 895.033-163.297ZM637.312-174.117 644.487-174.117 644.487-134.59 637.312-134.59ZM501.367-174.117 514.622-174.117C518.712-174.117 522.272-173.289 525.303-171.632 528.333-169.976 530.67-167.658 532.313-164.677 533.957-161.695 534.778-158.254 534.778-154.353 534.778-150.452 533.957-147.011 532.313-144.03 530.67-141.049 528.333-138.73 525.303-137.074 522.272-135.418 518.712-134.59 514.622-134.59L501.367-134.59ZM443.327-174.117 450.502-174.117 450.502-134.59 443.327-134.59ZM1031.14-175C1037.06-175 1041.95-172.847 1045.82-168.541L1040.62-163.462C1038.1-166.443 1034.96-167.934 1031.2-167.934 1028.75-167.934 1026.52-167.372 1024.51-166.25 1022.51-165.128 1020.93-163.536 1019.78-161.475 1018.63-159.414 1018.05-157.04 1018.05-154.353 1018.05-151.666 1018.63-149.293 1019.78-147.232 1020.93-145.171 1022.51-143.579 1024.51-142.456 1026.52-141.334 1028.75-140.773 1031.2-140.773 1035.32-140.773 1038.77-142.503 1041.55-145.962L1046.81-140.938C1044.87-138.583 1042.58-136.789 1039.93-135.556 1037.29-134.323 1034.36-133.706 1031.14-133.706 1027.34-133.706 1023.88-134.617 1020.74-136.439 1017.59-138.261 1015.12-140.745 1013.31-143.892 1011.51-147.038 1010.6-150.526 1010.6-154.353 1010.6-158.181 1011.51-161.668 1013.31-164.815 1015.12-167.961 1017.59-170.446 1020.74-172.267 1023.88-174.089 1027.34-175 1031.14-175ZM800.259-175C803.801-175 806.594-174.163 808.639-172.488 810.684-170.814 812.09-168.854 812.857-166.609L806.339-163.849C805.937-165.063 805.234-166.084 804.23-166.912 803.226-167.74 801.939-168.155 800.369-168.155 798.762-168.155 797.438-167.777 796.397-167.023 795.357-166.268 794.836-165.284 794.836-164.069 794.836-162.892 795.33-161.889 796.315-161.061 797.301-160.233 798.926-159.432 801.19-158.659L803.655-157.831C807.051-156.654 809.652-155.099 811.46-153.166 813.267-151.234 814.171-148.704 814.171-145.576 814.171-142.999 813.514-140.819 812.199-139.034 810.885-137.249 809.196-135.915 807.133-135.031 805.07-134.148 802.943-133.706 800.752-133.706 797.319-133.706 794.289-134.682 791.66-136.632 789.031-138.583 787.187-141.343 786.128-144.913L793.084-147.673C793.631-145.576 794.563-143.901 795.877-142.65 797.192-141.398 798.835-140.773 800.807-140.773 802.45-140.773 803.856-141.187 805.024-142.015 806.193-142.843 806.777-143.993 806.777-145.465 806.777-146.937 806.22-148.143 805.106-149.081 803.993-150.02 802.012-151.022 799.164-152.09L796.753-152.973C794.234-153.856 792.08-155.209 790.29-157.031 788.501-158.853 787.607-161.143 787.607-163.904 787.607-165.965 788.136-167.842 789.195-169.535 790.254-171.228 791.751-172.562 793.686-173.537 795.622-174.512 797.812-175 800.259-175ZM314.704-175C317.771-175 320.574-174.457 323.111-173.371 325.649-172.286 327.831-170.749 329.657-168.762L324.563-163.738C323.248-165.137 321.797-166.186 320.208-166.885 318.62-167.584 316.767-167.934 314.649-167.934 312.239-167.934 310.03-167.372 308.022-166.25 306.013-165.128 304.416-163.526 303.229-161.447 302.042-159.368 301.449-157.003 301.449-154.353 301.449-151.703 302.051-149.339 303.256-147.259 304.461-145.18 306.077-143.579 308.104-142.456 310.13-141.334 312.349-140.773 314.759-140.773 318.41-140.773 321.404-141.858 323.741-144.03 324.472-144.692 325.111-145.539 325.658-146.569 326.206-147.6 326.608-148.722 326.863-149.937L314.54-149.937 314.54-156.286 333.764-156.286C334.02-155.255 334.148-154.096 334.148-152.808 334.148-150.194 333.755-147.765 332.97-145.52 332.185-143.275 330.989-141.306 329.383-139.613 327.63-137.7 325.512-136.237 323.029-135.225 320.546-134.213 317.771-133.706 314.704-133.706 310.943-133.706 307.483-134.599 304.325-136.384 301.166-138.169 298.656-140.635 296.793-143.781 294.931-146.928 294-150.452 294-154.353 294-158.254 294.931-161.778 296.793-164.925 298.656-168.072 301.166-170.538 304.325-172.323 307.483-174.107 310.943-175 314.704-175Z" fill="#595959" fill-rule="evenodd"/><path d="M99.1134-174.972C104.839-174.653 110.309-171.593 113.471-166.309L113.47-166.309C118.529-157.854 115.763-146.906 107.293-141.857L77.3387-124 42-144.472 88.9742-172.475C92.1506-174.369 95.6781-175.164 99.1134-174.972Z" fill="#E24134" fill-rule="evenodd"/><path d="M40.1099-137.859C42.4115-137.567 44.6943-136.817 46.8269-135.574L107.102-100.448C115.633-95.476 118.536-84.5013 113.584-75.9349 108.633-67.3685 97.704-64.4542 89.1731-69.4258L28.8976-104.552C20.3667-109.524 17.4645-120.499 22.4157-129.065 26.1289-135.49 33.2048-138.736 40.1099-137.859Z" fill="#4081EB" fill-rule="evenodd"/><path d="M145.54-76.5518 145.54-76.5518 145.54-76.5518ZM181.513-118 217-97.8563 170.139-70.4846C163.76-66.7582 155.97-67.3546 150.331-71.3954L145.54-76.5518 143.17-83.1221C142.207-89.8941 145.364-96.885 151.743-100.611Z" fill="#F2B605" fill-rule="evenodd"/><path d="M163.11-173.861C165.411-173.573 167.694-172.834 169.827-171.608L230.102-136.976C238.633-132.075 241.536-121.255 236.584-112.809 231.633-104.363 220.704-101.49 212.173-106.392L151.898-141.023C143.367-145.925 140.464-156.745 145.416-165.191 149.129-171.525 156.205-174.725 163.11-173.861Z" fill="#33A251" fill-rule="evenodd"/></g></svg>