<svg width="584" height="189" xmlns="http://www.w3.org/2000/svg" xmlns:xlink="http://www.w3.org/1999/xlink" overflow="hidden"><defs><clipPath id="clip0"><rect x="0" y="0" width="584" height="189"/></clipPath></defs><g clip-path="url(#clip0)"><rect x="0" y="0" width="584" height="189.108" fill="#FFFFFF" fill-opacity="0"/><path d="M338.627 49.3688 369.613 67.3429 328.696 91.7673C321.269 96.2006 311.653 93.7767 307.218 86.3534L307.218 86.3534C302.782 78.93 305.207 69.3183 312.634 64.8849ZM214.637 32.1951C216.656 32.45 218.657 33.1048 220.528 34.1898L273.391 64.8547C280.873 69.1947 283.418 78.7754 279.076 86.2537L279.076 86.2537C274.734 93.7321 265.149 96.276 257.667 91.936L204.804 61.2711C199.192 58.0161 196.358 51.8131 197.123 45.7602L199.119 39.8721 203.244 35.2191C206.496 32.7744 210.6 31.6852 214.637 32.1951ZM322.442 0.452479C324.461 0.707538 326.463 1.36226 328.333 2.44725L381.196 33.1121C388.678 37.4521 391.223 47.0328 386.881 54.5111L386.881 54.5111C382.539 61.9895 372.954 64.5335 365.472 60.1934L312.609 29.5286C306.998 26.2735 304.163 20.0706 304.928 14.0177L306.924 8.12951 311.049 3.4765C314.301 1.03179 318.405-0.0573851 322.442 0.452479ZM266.069 0.024249C271.09 0.304446 275.886 2.99113 278.658 7.63069L278.658 7.63082C283.093 15.0542 280.668 24.6659 273.241 29.0993L246.977 44.7774 215.991 26.8033 257.179 2.21694C259.964 0.554426 263.057-0.143844 266.069 0.024249Z" fill="#595959" fill-rule="evenodd"/><path d="M368.563 176.922 368.563 184.703 374.778 184.703C376.028 184.703 377.027 184.312 377.775 183.529 378.522 182.746 378.896 181.841 378.896 180.813 378.896 179.761 378.51 178.849 377.738 178.078 376.966 177.308 375.93 176.922 374.631 176.922ZM306.29 175.417 318.388 175.417 318.388 178.868 306.29 178.868ZM368.563 166.021 368.563 173.252 374.153 173.252C375.329 173.252 376.279 172.885 377.003 172.151 377.726 171.417 378.087 170.572 378.087 169.618 378.087 168.664 377.738 167.826 377.039 167.104 376.341 166.382 375.428 166.021 374.3 166.021ZM280.238 165.581C278.497 165.581 276.904 165.997 275.457 166.829 274.011 167.661 272.865 168.817 272.019 170.297 271.173 171.778 270.751 173.472 270.751 175.381 270.751 177.289 271.173 178.984 272.019 180.464 272.865 181.945 274.011 183.101 275.457 183.933 276.904 184.765 278.497 185.181 280.238 185.181 281.978 185.181 283.572 184.765 285.018 183.933 286.464 183.101 287.604 181.945 288.438 180.464 289.271 178.984 289.688 177.289 289.688 175.381 289.688 173.472 289.271 171.778 288.438 170.297 287.604 168.817 286.464 167.661 285.018 166.829 283.572 165.997 281.978 165.581 280.238 165.581ZM364.445 162.241 374.337 162.241C375.734 162.241 377.027 162.546 378.216 163.158 379.405 163.77 380.355 164.614 381.066 165.691 381.777 166.767 382.132 167.954 382.132 169.251 382.132 170.548 381.807 171.674 381.158 172.628 380.508 173.582 379.656 174.304 378.602 174.793L378.602 175.014C379.926 175.479 380.998 176.249 381.82 177.326 382.641 178.403 383.052 179.663 383.052 181.107 383.052 182.55 382.678 183.835 381.93 184.96 381.182 186.086 380.177 186.961 378.915 187.585 377.652 188.209 376.273 188.521 374.778 188.521L364.445 188.521ZM332.27 162.241 337.859 162.241 345.434 182.171 345.655 182.171 353.23 162.241 358.819 162.241 358.819 188.521 354.737 188.521 354.737 173.802 354.958 169.068 354.737 169.068 347.199 188.521 343.89 188.521 336.351 169.068 336.131 169.068 336.351 173.802 336.351 188.521 332.27 188.521ZM245.212 162.241 264.04 162.241 264.04 166.168 256.685 166.168 256.685 188.521 252.567 188.521 252.567 166.168 245.212 166.168ZM200.792 162.241 204.874 162.241 204.874 178.647C204.874 180.58 205.383 182.152 206.4 183.364 207.417 184.575 208.87 185.181 210.757 185.181 212.645 185.181 214.091 184.581 215.096 183.382 216.102 182.183 216.604 180.605 216.604 178.647L216.604 162.241 220.722 162.241 220.722 178.427C220.722 180.531 220.318 182.391 219.509 184.006 218.7 185.621 217.548 186.875 216.053 187.768 214.557 188.661 212.792 189.108 210.757 189.108 208.796 189.108 207.062 188.667 205.554 187.787 204.047 186.906 202.876 185.658 202.042 184.043 201.209 182.428 200.792 180.556 200.792 178.427ZM280.238 161.653C282.787 161.653 285.098 162.265 287.169 163.489 289.241 164.712 290.877 166.37 292.078 168.462 293.279 170.554 293.88 172.86 293.88 175.381 293.88 177.901 293.285 180.213 292.096 182.318 290.908 184.422 289.271 186.08 287.187 187.291 285.104 188.502 282.787 189.108 280.238 189.108 277.688 189.108 275.372 188.502 273.288 187.291 271.204 186.08 269.568 184.422 268.379 182.318 267.19 180.213 266.595 177.901 266.595 175.381 266.595 172.86 267.19 170.554 268.379 168.462 269.568 166.37 271.204 164.712 273.288 163.489 275.372 162.265 277.688 161.653 280.238 161.653ZM233.942 161.653C236.246 161.653 238.085 162.21 239.458 163.323 240.831 164.437 241.75 165.691 242.216 167.086L238.502 168.664C238.232 167.832 237.717 167.098 236.957 166.462 236.197 165.825 235.217 165.507 234.016 165.507 232.814 165.507 231.803 165.813 230.982 166.425 230.161 167.037 229.75 167.82 229.75 168.774 229.75 169.679 230.118 170.426 230.853 171.013 231.589 171.6 232.741 172.163 234.31 172.701L235.964 173.252C238.22 174.035 239.966 175.056 241.204 176.317 242.442 177.577 243.061 179.259 243.061 181.363 243.061 183.076 242.62 184.514 241.738 185.676 240.855 186.838 239.734 187.701 238.373 188.264 237.012 188.827 235.609 189.108 234.163 189.108 231.981 189.108 230.02 188.472 228.279 187.199 226.539 185.927 225.337 184.141 224.675 181.841L228.573 180.262C228.966 181.706 229.658 182.887 230.651 183.804 231.644 184.722 232.839 185.181 234.236 185.181 235.535 185.181 236.639 184.844 237.546 184.171 238.453 183.498 238.906 182.575 238.906 181.4 238.906 180.323 238.508 179.436 237.711 178.739 236.914 178.042 235.523 177.338 233.537 176.629L231.883 176.041C230.118 175.43 228.635 174.549 227.433 173.399 226.232 172.249 225.632 170.731 225.632 168.847 225.632 167.55 225.987 166.351 226.698 165.25 227.409 164.149 228.396 163.274 229.658 162.626 230.921 161.978 232.349 161.653 233.942 161.653ZM555.906 129.372C554.926 129.372 554.013 129.629 553.167 130.143 552.321 130.657 551.641 131.385 551.126 132.327 550.611 133.269 550.354 134.352 550.354 135.575 550.354 136.799 550.611 137.888 551.126 138.842 551.641 139.796 552.321 140.53 553.167 141.044 554.013 141.558 554.926 141.815 555.906 141.815 556.887 141.815 557.806 141.558 558.664 141.044 559.522 140.53 560.209 139.796 560.724 138.842 561.238 137.888 561.496 136.799 561.496 135.575 561.496 134.352 561.238 133.269 560.724 132.327 560.209 131.385 559.522 130.657 558.664 130.143 557.806 129.629 556.887 129.372 555.906 129.372ZM409.159 129.372C408.179 129.372 407.26 129.629 406.402 130.143 405.544 130.657 404.857 131.385 404.342 132.327 403.828 133.269 403.57 134.352 403.57 135.575 403.57 136.799 403.828 137.888 404.342 138.842 404.857 139.796 405.544 140.53 406.402 141.044 407.26 141.558 408.179 141.815 409.159 141.815 410.14 141.815 411.053 141.558 411.899 141.044 412.745 140.53 413.425 139.796 413.94 138.842 414.455 137.888 414.712 136.799 414.712 135.575 414.712 134.352 414.455 133.269 413.94 132.327 413.425 131.385 412.745 130.657 411.899 130.143 411.053 129.629 410.14 129.372 409.159 129.372ZM265.033 129.372C264.052 129.372 263.139 129.629 262.293 130.143 261.447 130.657 260.767 131.385 260.252 132.327 259.737 133.269 259.48 134.352 259.48 135.575 259.48 136.799 259.737 137.888 260.252 138.842 260.767 139.796 261.447 140.53 262.293 141.044 263.139 141.558 264.052 141.815 265.033 141.815 266.013 141.815 266.932 141.558 267.79 141.044 268.648 140.53 269.335 139.796 269.85 138.842 270.364 137.888 270.622 136.799 270.622 135.575 270.622 134.352 270.364 133.269 269.85 132.327 269.335 131.385 268.648 130.657 267.79 130.143 266.932 129.629 266.013 129.372 265.033 129.372ZM242.721 129.372C241.692 129.372 240.736 129.623 239.853 130.125 238.971 130.626 238.266 131.342 237.739 132.272 237.212 133.202 236.948 134.303 236.948 135.575 236.948 136.848 237.212 137.955 237.739 138.897 238.266 139.839 238.971 140.561 239.853 141.062 240.736 141.564 241.692 141.815 242.721 141.815 243.751 141.815 244.707 141.564 245.589 141.062 246.472 140.561 247.177 139.839 247.704 138.897 248.231 137.955 248.494 136.848 248.494 135.575 248.494 134.303 248.231 133.202 247.704 132.272 247.177 131.342 246.472 130.626 245.589 130.125 244.707 129.623 243.751 129.372 242.721 129.372ZM61.1606 129.372C60.131 129.372 59.1749 129.623 58.2924 130.125 57.4099 130.626 56.7051 131.342 56.1781 132.272 55.651 133.202 55.3875 134.303 55.3875 135.575 55.3875 136.848 55.651 137.955 56.1781 138.897 56.7051 139.839 57.4099 140.561 58.2924 141.062 59.1749 141.564 60.131 141.815 61.1606 141.815 62.1901 141.815 63.1462 141.564 64.0289 141.062 64.9114 140.561 65.6161 139.839 66.1432 138.897 66.6702 137.955 66.9338 136.848 66.9338 135.575 66.9338 134.303 66.6702 133.202 66.1432 132.272 65.6161 131.342 64.9114 130.626 64.0289 130.125 63.1462 129.623 62.1901 129.372 61.1606 129.372ZM39.3273 129.372C38.2978 129.372 37.3417 129.623 36.4592 130.125 35.5767 130.626 34.8719 131.342 34.3448 132.272 33.8177 133.202 33.5542 134.303 33.5542 135.575 33.5542 136.848 33.8177 137.955 34.3448 138.897 34.8719 139.839 35.5767 140.561 36.4592 141.062 37.3417 141.564 38.2978 141.815 39.3273 141.815 40.3569 141.815 41.313 141.564 42.1955 141.062 43.0781 140.561 43.7829 139.839 44.31 138.897 44.837 137.955 45.1006 136.848 45.1006 135.575 45.1006 134.303 44.837 133.202 44.31 132.272 43.7829 131.342 43.0781 130.626 42.1955 130.125 41.313 129.623 40.3569 129.372 39.3273 129.372ZM82.6997 129.335C81.6946 129.335 80.7753 129.57 79.9418 130.04 79.1083 130.51 78.4465 131.191 77.9562 132.083 77.4659 132.974 77.2207 134.047 77.2207 135.3 77.2207 136.553 77.4659 137.626 77.9562 138.517 78.4465 139.409 79.1083 140.09 79.9418 140.559 80.7753 141.029 81.6946 141.264 82.6997 141.264 83.6803 141.264 84.5873 141.029 85.4208 140.559 86.2543 140.09 86.9162 139.403 87.4064 138.499 87.8967 137.596 88.1419 136.529 88.1419 135.3 88.1419 133.42 87.6209 131.956 86.5791 130.908 85.5372 129.86 84.244 129.335 82.6997 129.335ZM431.884 129.115C430.585 129.115 429.488 129.501 428.593 130.271 427.699 131.042 427.08 132.076 426.736 133.373L436.922 133.373C436.873 132.712 436.665 132.058 436.297 131.409 435.929 130.761 435.372 130.216 434.624 129.776 433.876 129.335 432.963 129.115 431.884 129.115ZM287.096 129.115C285.796 129.115 284.699 129.501 283.805 130.271 282.91 131.042 282.291 132.076 281.947 133.373L292.133 133.373C292.084 132.712 291.876 132.058 291.508 131.409 291.141 130.761 290.583 130.216 289.835 129.776 289.087 129.335 288.174 129.115 287.096 129.115ZM212.403 129.115C211.104 129.115 210.007 129.501 209.112 130.271 208.217 131.042 207.598 132.076 207.255 133.373L217.441 133.373C217.392 132.712 217.183 132.058 216.815 131.409 216.448 130.761 215.89 130.216 215.142 129.776 214.395 129.335 213.482 129.115 212.403 129.115ZM172.184 129.115C170.885 129.115 169.788 129.501 168.893 130.271 167.998 131.042 167.379 132.076 167.036 133.373L177.222 133.373C177.173 132.712 176.964 132.058 176.596 131.409 176.229 130.761 175.671 130.216 174.923 129.776 174.176 129.335 173.262 129.115 172.184 129.115ZM114.728 129.115C113.429 129.115 112.332 129.501 111.437 130.271 110.542 131.042 109.923 132.076 109.58 133.373L119.766 133.373C119.717 132.712 119.508 132.058 119.141 131.409 118.773 130.761 118.215 130.216 117.467 129.776 116.72 129.335 115.806 129.115 114.728 129.115ZM524.513 126.216 528.557 126.216 528.557 137.264C528.557 138.781 528.919 139.918 529.642 140.677 530.365 141.436 531.315 141.815 532.492 141.815 533.448 141.815 534.294 141.564 535.029 141.062 535.765 140.561 536.329 139.894 536.721 139.062 537.113 138.23 537.309 137.337 537.309 136.383L537.309 126.216 541.354 126.216 541.354 144.935 537.53 144.935 537.53 142.512 537.309 142.512C536.794 143.393 535.998 144.115 534.919 144.678 533.84 145.241 532.7 145.522 531.499 145.522 529.219 145.522 527.485 144.843 526.296 143.485 525.107 142.127 524.513 140.237 524.513 137.814ZM378.575 126.216 382.62 126.216 382.62 137.264C382.62 138.781 382.981 139.918 383.704 140.677 384.427 141.436 385.377 141.815 386.554 141.815 387.51 141.815 388.356 141.564 389.091 141.062 389.827 140.561 390.391 139.894 390.783 139.062 391.175 138.23 391.371 137.337 391.371 136.383L391.371 126.216 395.416 126.216 395.416 144.935 391.592 144.935 391.592 142.512 391.371 142.512C390.856 143.393 390.06 144.115 388.981 144.678 387.902 145.241 386.762 145.522 385.561 145.522 383.281 145.522 381.547 144.843 380.358 143.485 379.169 142.127 378.575 140.237 378.575 137.814ZM182.425 126.216 186.948 126.216 192.132 139.723 192.28 139.723 197.575 126.216 201.987 126.216 194.192 144.935 190.147 144.935ZM576.057 125.628C577.798 125.628 579.33 125.977 580.654 126.674 581.978 127.372 582.934 128.381 583.522 129.702L579.992 131.244C579.281 129.8 577.982 129.079 576.094 129.079 575.187 129.079 574.427 129.262 573.814 129.629 573.201 129.996 572.895 130.473 572.895 131.061 572.895 131.623 573.128 132.082 573.594 132.437 574.06 132.792 574.746 133.091 575.653 133.336L578.411 134.034C580.249 134.498 581.64 135.202 582.584 136.144 583.528 137.086 584 138.242 584 139.613 584 140.787 583.663 141.821 582.989 142.714 582.315 143.607 581.389 144.298 580.213 144.788 579.036 145.277 577.737 145.522 576.315 145.522 574.158 145.522 572.393 145.051 571.02 144.109 569.647 143.167 568.679 141.962 568.115 140.493L571.718 138.915C572.16 139.894 572.779 140.64 573.575 141.154 574.372 141.668 575.285 141.925 576.315 141.925 577.32 141.925 578.166 141.747 578.852 141.393 579.538 141.038 579.882 140.506 579.882 139.796 579.882 139.111 579.587 138.573 578.999 138.181 578.411 137.79 577.504 137.447 576.278 137.153L574.035 136.603C572.54 136.236 571.302 135.587 570.321 134.658 569.34 133.728 568.85 132.553 568.85 131.134 568.85 130.033 569.175 129.066 569.825 128.234 570.474 127.402 571.351 126.76 572.454 126.307 573.557 125.855 574.758 125.628 576.057 125.628ZM454.076 125.628C456.356 125.628 458.09 126.295 459.279 127.629 460.468 128.962 461.063 130.779 461.063 133.079L461.063 144.935 457.018 144.935 457.018 133.63C457.018 132.162 456.656 131.085 455.933 130.4 455.21 129.715 454.211 129.372 452.936 129.372 452.029 129.372 451.22 129.623 450.509 130.125 449.798 130.626 449.247 131.293 448.855 132.125 448.462 132.957 448.266 133.85 448.266 134.804L448.266 144.935 444.221 144.935 444.221 126.216 448.082 126.216 448.082 128.675 448.266 128.675C448.806 127.794 449.608 127.066 450.675 126.491 451.741 125.916 452.875 125.628 454.076 125.628ZM431.884 125.628C433.772 125.628 435.408 126.044 436.793 126.876 438.179 127.708 439.233 128.846 439.956 130.29 440.679 131.733 441.041 133.361 441.041 135.171 441.041 135.514 441.004 135.942 440.93 136.456L426.552 136.456C426.7 138.193 427.319 139.533 428.41 140.475 429.5 141.417 430.769 141.888 432.215 141.888 433.368 141.888 434.366 141.625 435.212 141.099 436.058 140.573 436.738 139.857 437.253 138.952L440.673 140.567C439.79 142.109 438.638 143.32 437.216 144.201 435.795 145.081 434.091 145.522 432.105 145.522 430.266 145.522 428.618 145.094 427.159 144.237 425.701 143.381 424.561 142.2 423.739 140.695 422.918 139.19 422.508 137.496 422.508 135.612 422.508 133.826 422.906 132.168 423.703 130.639 424.499 129.109 425.609 127.892 427.031 126.986 428.452 126.081 430.07 125.628 431.884 125.628ZM320.953 125.628C322.694 125.628 324.226 125.977 325.55 126.674 326.873 127.372 327.83 128.381 328.418 129.702L324.888 131.244C324.177 129.8 322.878 129.079 320.99 129.079 320.083 129.079 319.323 129.262 318.71 129.629 318.097 129.996 317.791 130.473 317.791 131.061 317.791 131.623 318.024 132.082 318.489 132.437 318.955 132.792 319.642 133.091 320.549 133.336L323.307 134.034C325.145 134.498 326.536 135.202 327.48 136.144 328.424 137.086 328.896 138.242 328.896 139.613 328.896 140.787 328.559 141.821 327.885 142.714 327.211 143.607 326.285 144.298 325.108 144.788 323.932 145.277 322.632 145.522 321.211 145.522 319.053 145.522 317.288 145.051 315.915 144.109 314.543 143.167 313.574 141.962 313.01 140.493L316.614 138.915C317.055 139.894 317.674 140.64 318.471 141.154 319.268 141.668 320.181 141.925 321.211 141.925 322.216 141.925 323.061 141.747 323.748 141.393 324.434 141.038 324.777 140.506 324.777 139.796 324.777 139.111 324.483 138.573 323.895 138.181 323.307 137.79 322.4 137.447 321.174 137.153L318.931 136.603C317.435 136.236 316.197 135.587 315.217 134.658 314.236 133.728 313.746 132.553 313.746 131.134 313.746 130.033 314.071 129.066 314.72 128.234 315.37 127.402 316.246 126.76 317.35 126.307 318.453 125.855 319.654 125.628 320.953 125.628ZM308.92 125.628C309.827 125.628 310.587 125.763 311.199 126.032L311.199 130.18C310.121 129.788 309.152 129.592 308.295 129.592 307.363 129.592 306.536 129.838 305.812 130.328 305.089 130.819 304.519 131.475 304.102 132.296 303.686 133.118 303.477 134.02 303.477 135.001L303.477 144.935 299.433 144.935 299.433 126.216 303.294 126.216 303.294 128.968 303.477 128.968C303.894 128.014 304.617 127.219 305.647 126.583 306.677 125.946 307.767 125.628 308.92 125.628ZM287.096 125.628C288.983 125.628 290.62 126.044 292.005 126.876 293.39 127.708 294.444 128.846 295.167 130.29 295.89 131.733 296.252 133.361 296.252 135.171 296.252 135.514 296.215 135.942 296.141 136.456L281.764 136.456C281.911 138.193 282.53 139.533 283.621 140.475 284.712 141.417 285.98 141.888 287.427 141.888 288.579 141.888 289.578 141.625 290.423 141.099 291.269 140.573 291.949 139.857 292.464 138.952L295.884 140.567C295.001 142.109 293.849 143.32 292.427 144.201 291.006 145.081 289.302 145.522 287.316 145.522 285.478 145.522 283.829 145.094 282.37 144.237 280.912 143.381 279.772 142.2 278.951 140.695 278.129 139.19 277.719 137.496 277.719 135.612 277.719 133.826 278.117 132.168 278.914 130.639 279.711 129.109 280.82 127.892 282.242 126.986 283.663 126.081 285.282 125.628 287.096 125.628ZM265.621 125.628C267.312 125.628 268.845 126.057 270.217 126.913 271.59 127.769 272.675 128.95 273.472 130.455 274.268 131.96 274.667 133.667 274.667 135.575 274.667 137.484 274.268 139.19 273.472 140.695 272.675 142.2 271.59 143.381 270.217 144.237 268.845 145.094 267.312 145.522 265.621 145.522 264.297 145.522 263.108 145.228 262.054 144.641 261 144.054 260.203 143.344 259.664 142.512L259.48 142.512 259.664 145.118 259.664 152.863 255.619 152.863 255.619 126.216 259.48 126.216 259.48 128.675 259.664 128.675C260.203 127.818 261 127.096 262.054 126.509 263.108 125.922 264.297 125.628 265.621 125.628ZM242.721 125.628C244.609 125.628 246.3 126.069 247.796 126.95 249.291 127.831 250.456 129.03 251.289 130.547 252.123 132.064 252.539 133.74 252.539 135.575 252.539 137.435 252.123 139.123 251.289 140.64 250.456 142.157 249.291 143.35 247.796 144.219 246.3 145.088 244.609 145.522 242.721 145.522 240.834 145.522 239.142 145.088 237.647 144.219 236.151 143.35 234.987 142.157 234.153 140.64 233.32 139.123 232.903 137.435 232.903 135.575 232.903 133.715 233.32 132.027 234.153 130.51 234.987 128.993 236.151 127.8 237.647 126.931 239.142 126.063 240.834 125.628 242.721 125.628ZM212.403 125.628C214.291 125.628 215.927 126.044 217.312 126.876 218.697 127.708 219.751 128.846 220.474 130.29 221.198 131.733 221.559 133.361 221.559 135.171 221.559 135.514 221.522 135.942 221.449 136.456L207.071 136.456C207.218 138.193 207.837 139.533 208.928 140.475 210.019 141.417 211.288 141.888 212.734 141.888 213.886 141.888 214.885 141.625 215.731 141.099 216.576 140.573 217.257 139.857 217.772 138.952L221.191 140.567C220.309 142.109 219.157 143.32 217.735 144.201 216.313 145.081 214.609 145.522 212.624 145.522 210.785 145.522 209.136 145.094 207.678 144.237 206.219 143.381 205.079 142.2 204.258 140.695 203.437 139.19 203.026 137.496 203.026 135.612 203.026 133.826 203.424 132.168 204.221 130.639 205.018 129.109 206.127 127.892 207.549 126.986 208.971 126.081 210.589 125.628 212.403 125.628ZM172.184 125.628C174.071 125.628 175.708 126.044 177.093 126.876 178.478 127.708 179.532 128.846 180.255 130.29 180.978 131.733 181.34 133.361 181.34 135.171 181.34 135.514 181.303 135.942 181.23 136.456L166.852 136.456C166.999 138.193 167.618 139.533 168.709 140.475 169.8 141.417 171.068 141.888 172.515 141.888 173.667 141.888 174.666 141.625 175.512 141.099 176.357 140.573 177.038 139.857 177.552 138.952L180.972 140.567C180.09 142.109 178.938 143.32 177.516 144.201 176.094 145.081 174.39 145.522 172.404 145.522 170.566 145.522 168.917 145.094 167.459 144.237 166 143.381 164.86 142.2 164.039 140.695 163.218 139.19 162.807 137.496 162.807 135.612 162.807 133.826 163.205 132.168 164.002 130.639 164.799 129.109 165.908 127.892 167.33 126.986 168.752 126.081 170.37 125.628 172.184 125.628ZM114.728 125.628C116.616 125.628 118.252 126.044 119.637 126.876 121.022 127.708 122.076 128.846 122.799 130.29 123.523 131.733 123.884 133.361 123.884 135.171 123.884 135.514 123.847 135.942 123.774 136.456L109.396 136.456C109.543 138.193 110.162 139.533 111.253 140.475 112.344 141.417 113.612 141.888 115.059 141.888 116.211 141.888 117.21 141.625 118.056 141.099 118.901 140.573 119.582 139.857 120.097 138.952L123.516 140.567C122.634 142.109 121.482 143.32 120.06 144.201 118.638 145.081 116.934 145.522 114.948 145.522 113.11 145.522 111.461 145.094 110.003 144.237 108.544 143.381 107.404 142.2 106.583 140.695 105.762 139.19 105.351 137.496 105.351 135.612 105.351 133.826 105.75 132.168 106.546 130.639 107.343 129.109 108.452 127.892 109.874 126.986 111.296 126.081 112.914 125.628 114.728 125.628ZM81.9643 125.628C83.2635 125.628 84.4279 125.885 85.4576 126.399 86.4871 126.913 87.3084 127.61 87.9212 128.491L88.1419 128.491 88.1419 126.216 92.0029 126.216 92.0029 143.907C92.0029 145.938 91.6107 147.669 90.8263 149.101 90.0417 150.532 88.9447 151.615 87.5352 152.349 86.1256 153.083 84.5015 153.45 82.6629 153.45 80.3585 153.45 78.4525 152.924 76.9449 151.872 75.4373 150.82 74.426 149.572 73.9113 148.128L77.6987 146.55C78.0909 147.528 78.7222 148.318 79.5924 148.917 80.4628 149.516 81.4862 149.816 82.6629 149.816 84.3789 149.816 85.7211 149.289 86.6895 148.233 87.6577 147.178 88.1419 145.712 88.1419 143.834L88.1419 142.109 87.9212 142.109C87.3084 142.989 86.4933 143.681 85.4759 144.182 84.4585 144.684 83.2881 144.935 81.9643 144.935 80.3953 144.935 78.9367 144.535 77.5884 143.735 76.2402 142.935 75.1676 141.802 74.3709 140.335 73.5742 138.869 73.1758 137.191 73.1758 135.3 73.1758 133.409 73.5742 131.731 74.3709 130.264 75.1676 128.798 76.2402 127.659 77.5884 126.846 78.9367 126.034 80.3953 125.628 81.9643 125.628ZM61.1606 125.628C63.0483 125.628 64.7397 126.069 66.2352 126.95 67.7305 127.831 68.895 129.03 69.7284 130.547 70.5619 132.064 70.9787 133.74 70.9787 135.575 70.9787 137.435 70.5619 139.123 69.7284 140.64 68.895 142.157 67.7305 143.35 66.2352 144.219 64.7397 145.088 63.0483 145.522 61.1606 145.522 59.273 145.522 57.5815 145.088 56.0861 144.219 54.5906 143.35 53.4262 142.157 52.5928 140.64 51.7593 139.123 51.3426 137.435 51.3426 135.575 51.3426 133.715 51.7593 132.027 52.5928 130.51 53.4262 128.993 54.5906 127.8 56.0861 126.931 57.5815 126.063 59.273 125.628 61.1606 125.628ZM39.3273 125.628C41.215 125.628 42.9064 126.069 44.4019 126.95 45.8973 127.831 47.0617 129.03 47.8952 130.547 48.7286 132.064 49.1455 133.74 49.1455 135.575 49.1455 137.435 48.7286 139.123 47.8952 140.64 47.0617 142.157 45.8973 143.35 44.4019 144.219 42.9064 145.088 41.215 145.522 39.3273 145.522 37.4398 145.522 35.7482 145.088 34.2529 144.219 32.7575 143.35 31.5931 142.157 30.7596 140.64 29.926 139.123 29.5093 137.435 29.5093 135.575 29.5093 133.715 29.926 132.027 30.7596 130.51 31.5931 128.993 32.7575 127.8 34.2529 126.931 35.7482 126.063 37.4398 125.628 39.3273 125.628ZM142.187 122.582 142.187 141.007 146.416 141.007C149.358 141.007 151.656 140.194 153.311 138.566 154.965 136.939 155.793 134.682 155.793 131.795 155.793 128.932 154.965 126.681 153.311 125.041 151.656 123.402 149.358 122.582 146.416 122.582ZM468.003 120.93 472.048 120.93 472.048 126.216 476.608 126.216 476.608 129.776 472.048 129.776 472.048 138.806C472.048 139.835 472.245 140.562 472.637 140.989 473.004 141.491 473.642 141.741 474.549 141.741 474.966 141.741 475.333 141.686 475.652 141.576 475.971 141.466 476.314 141.289 476.682 141.044L476.682 144.971C475.873 145.338 474.892 145.522 473.74 145.522 472.906 145.522 472.122 145.385 471.387 145.11 470.651 144.836 470.05 144.475 469.585 144.026 468.531 142.954 468.003 141.495 468.003 139.65L468.003 129.776 464.731 129.776 464.731 126.216 468.003 126.216ZM365.732 120.93 369.777 120.93 369.777 126.216 374.337 126.216 374.337 129.776 369.777 129.776 369.777 138.806C369.777 139.835 369.973 140.562 370.365 140.989 370.733 141.491 371.37 141.741 372.277 141.741 372.694 141.741 373.062 141.686 373.38 141.576 373.699 141.466 374.042 141.289 374.41 141.044L374.41 144.971C373.601 145.338 372.621 145.522 371.468 145.522 370.635 145.522 369.85 145.385 369.115 145.11 368.38 144.836 367.779 144.475 367.313 144.026 366.259 142.954 365.732 141.495 365.732 139.65L365.732 129.776 362.459 129.776 362.459 126.216 365.732 126.216ZM546.493 118.655 550.538 118.655 550.538 126.032 550.354 128.675 550.538 128.675C551.077 127.818 551.874 127.096 552.928 126.509 553.982 125.922 555.171 125.628 556.495 125.628 558.186 125.628 559.718 126.057 561.091 126.913 562.464 127.769 563.549 128.95 564.346 130.455 565.142 131.96 565.541 133.667 565.541 135.575 565.541 137.484 565.142 139.19 564.346 140.695 563.549 142.2 562.464 143.381 561.091 144.237 559.718 145.094 558.186 145.522 556.495 145.522 555.171 145.522 553.982 145.228 552.928 144.641 551.874 144.054 551.077 143.344 550.538 142.512L550.354 142.512 550.354 144.935 546.493 144.935ZM515.467 118.655 519.512 118.655 519.512 144.935 515.467 144.935ZM414.528 118.655 418.573 118.655 418.573 144.935 414.712 144.935 414.712 142.512 414.528 142.512C413.989 143.344 413.192 144.054 412.138 144.641 411.084 145.228 409.895 145.522 408.571 145.522 406.88 145.522 405.347 145.094 403.975 144.237 402.602 143.381 401.517 142.2 400.72 140.695 399.924 139.19 399.525 137.484 399.525 135.575 399.525 133.667 399.924 131.96 400.72 130.455 401.517 128.95 402.602 127.769 403.975 126.913 405.347 126.057 406.88 125.628 408.571 125.628 409.895 125.628 411.084 125.922 412.138 126.509 413.192 127.096 413.989 127.818 414.528 128.675L414.712 128.675 414.528 126.032ZM224.74 118.655 228.785 118.655 228.785 144.935 224.74 144.935ZM138.069 118.655 146.49 118.655C149.211 118.655 151.589 119.205 153.623 120.306 155.658 121.407 157.221 122.955 158.312 124.949 159.403 126.944 159.948 129.225 159.948 131.795 159.948 134.364 159.403 136.646 158.312 138.64 157.221 140.634 155.658 142.182 153.623 143.283 151.589 144.384 149.211 144.935 146.49 144.935L138.069 144.935ZM97.1878 118.655 101.233 118.655 101.233 144.935 97.1878 144.935ZM500.979 118.067C502.964 118.067 504.772 118.434 506.402 119.169 508.033 119.903 509.473 120.967 510.723 122.362L507.781 125.188C506.874 124.111 505.869 123.31 504.766 122.784 503.663 122.258 502.4 121.995 500.979 121.995 499.214 121.995 497.602 122.398 496.143 123.206 494.685 124.013 493.526 125.157 492.668 126.638 491.81 128.118 491.381 129.837 491.381 131.795 491.381 133.752 491.81 135.471 492.668 136.952 493.526 138.432 494.685 139.576 496.143 140.383 497.602 141.191 499.214 141.595 500.979 141.595 503.92 141.595 506.421 140.371 508.48 137.924L511.459 140.787C510.184 142.28 508.652 143.442 506.862 144.274 505.073 145.106 503.111 145.522 500.979 145.522 498.429 145.522 496.1 144.922 493.992 143.723 491.884 142.524 490.229 140.873 489.028 138.768 487.827 136.664 487.226 134.34 487.226 131.795 487.226 129.25 487.827 126.925 489.028 124.821 490.229 122.717 491.884 121.065 493.992 119.866 496.1 118.667 498.429 118.067 500.979 118.067ZM351.152 118.067C353.456 118.067 355.295 118.624 356.668 119.737 358.041 120.851 358.96 122.105 359.426 123.5L355.712 125.078C355.442 124.246 354.927 123.512 354.167 122.876 353.407 122.239 352.427 121.921 351.225 121.921 350.024 121.921 349.013 122.227 348.192 122.839 347.371 123.451 346.96 124.234 346.96 125.188 346.96 126.093 347.328 126.84 348.063 127.427 348.799 128.014 349.951 128.577 351.52 129.115L353.174 129.666C355.43 130.449 357.176 131.47 358.414 132.731 359.652 133.991 360.271 135.673 360.271 137.777 360.271 139.49 359.83 140.928 358.948 142.09 358.065 143.252 356.944 144.115 355.583 144.678 354.222 145.241 352.819 145.522 351.373 145.522 349.191 145.522 347.23 144.886 345.489 143.613 343.749 142.341 342.547 140.555 341.885 138.255L345.783 136.676C346.176 138.12 346.868 139.301 347.861 140.218 348.854 141.136 350.049 141.595 351.446 141.595 352.745 141.595 353.849 141.258 354.756 140.585 355.663 139.912 356.116 138.989 356.116 137.814 356.116 136.737 355.718 135.85 354.921 135.153 354.124 134.456 352.733 133.752 350.747 133.043L349.093 132.455C347.328 131.844 345.845 130.963 344.643 129.813 343.442 128.663 342.842 127.145 342.842 125.261 342.842 123.964 343.197 122.765 343.908 121.664 344.619 120.563 345.606 119.688 346.868 119.04 348.131 118.392 349.559 118.067 351.152 118.067ZM13.7894 118.067C15.7751 118.067 17.6258 118.422 19.3419 119.132 21.0579 119.841 22.4921 120.832 23.6442 122.105L20.7761 124.968C19.9179 124.013 18.8945 123.279 17.7056 122.765 16.5165 122.252 15.199 121.995 13.7526 121.995 12.0611 121.995 10.48 122.398 9.00896 123.206 7.53821 124.013 6.36147 125.164 5.47897 126.656 4.59635 128.149 4.15516 129.862 4.15516 131.795 4.15516 133.728 4.59635 135.441 5.47897 136.933 6.36147 138.426 7.53821 139.576 9.00896 140.383 10.48 141.191 12.0734 141.595 13.7894 141.595 15.3584 141.595 16.6699 141.362 17.7239 140.897 18.7781 140.432 19.7219 139.808 20.5554 139.025 21.0947 138.487 21.5543 137.814 21.9343 137.007 22.3142 136.199 22.5655 135.318 22.6881 134.364L13.7526 134.364 13.7526 130.694 26.5859 130.694C26.7085 131.379 26.7698 132.088 26.7698 132.822 26.7698 134.486 26.5125 136.083 25.9976 137.612 25.4828 139.142 24.6616 140.469 23.5338 141.595 21.0579 144.213 17.8098 145.522 13.7894 145.522 11.2889 145.522 8.98447 144.922 6.87625 143.723 4.76803 142.524 3.09496 140.879 1.85693 138.787 0.618895 136.695 0 134.364 0 131.795 0 129.225 0.618895 126.895 1.85693 124.802 3.09496 122.71 4.76803 121.065 6.87625 119.866 8.98447 118.667 11.2889 118.067 13.7894 118.067Z" fill="#595959" fill-rule="evenodd"/></g></svg>