<svg width="1134" height="107" xmlns="http://www.w3.org/2000/svg" xmlns:xlink="http://www.w3.org/1999/xlink" overflow="hidden"><defs><clipPath id="clip0"><rect x="0" y="0" width="1134" height="107"/></clipPath></defs><g clip-path="url(#clip0)"><rect x="0" y="0" width="1134" height="106.652" fill="#FFFFFF" fill-opacity="0"/><path d="M534.102 88.9886 534.102 99.0741 542.309 99.0741C544.096 99.0741 545.491 98.6107 546.494 97.684 547.497 96.7573 547.999 95.5489 547.999 94.0587 547.999 92.5686 547.488 91.351 546.467 90.4061 545.445 89.4613 543.987 88.9886 542.09 88.9886ZM436.776 85.7176 455.322 85.7176 455.322 92.0416 436.776 92.0416ZM534.102 73.3425 534.102 82.6649 541.488 82.6649C543.093 82.6649 544.379 82.2196 545.345 81.3291 546.312 80.4387 546.795 79.3211 546.795 77.9764 546.795 76.6681 546.33 75.5687 545.4 74.6782 544.47 73.7877 543.239 73.3425 541.707 73.3425ZM397.039 72.8519C394.632 72.8519 392.435 73.4152 390.447 74.5418 388.459 75.6686 386.891 77.2495 385.742 79.2849 384.593 81.3201 384.019 83.6462 384.019 86.2628 384.019 88.8796 384.593 91.2057 385.742 93.2409 386.891 95.2763 388.459 96.8572 390.447 97.9838 392.435 99.1106 394.632 99.6739 397.039 99.6739 399.447 99.6739 401.653 99.1106 403.659 97.9838 405.665 96.8572 407.243 95.2763 408.392 93.2409 409.54 91.2057 410.115 88.8796 410.115 86.2628 410.115 83.6462 409.54 81.3201 408.392 79.2849 407.243 77.2495 405.665 75.6686 403.659 74.5418 401.653 73.4152 399.447 72.8519 397.039 72.8519ZM526.717 66.7462 542.035 66.7462C544.224 66.7462 546.239 67.2005 548.081 68.1091 549.922 69.0177 551.372 70.2532 552.43 71.816 553.488 73.379 554.016 75.087 554.016 76.9406 554.016 78.9031 553.533 80.6022 552.567 82.0379 551.6 83.4735 550.333 84.5729 548.764 85.3361L548.764 85.7722C550.807 86.4991 552.43 87.6531 553.634 89.234 554.837 90.8149 555.439 92.7139 555.439 94.931 555.439 97.0752 554.864 98.9742 553.716 100.628 552.567 102.282 551.017 103.554 549.065 104.444 547.114 105.334 544.953 105.78 542.582 105.78L526.717 105.78ZM476.567 66.7462 486.087 66.7462 496.481 94.1676 496.919 94.1676 507.314 66.7462 516.888 66.7462 516.888 105.78 509.557 105.78 509.557 86.5354 509.994 80.048 509.557 80.048 499.6 105.78 493.855 105.78 483.844 80.048 483.406 80.048 483.844 86.5354 483.844 105.78 476.567 105.78ZM343.626 66.7462 372.895 66.7462 372.895 73.724 361.953 73.724 361.953 105.78 354.567 105.78 354.567 73.724 343.626 73.724ZM275.258 66.7462 282.589 66.7462 282.589 90.6787C282.589 93.3683 283.273 95.5396 284.641 97.1935 286.008 98.8471 287.951 99.6739 290.467 99.6739 292.984 99.6739 294.926 98.8471 296.294 97.1935 297.661 95.5396 298.345 93.3683 298.345 90.6787L298.345 66.7462 305.676 66.7462 305.676 90.2425C305.676 93.4772 305.056 96.3302 303.816 98.8015 302.576 101.273 300.807 103.199 298.509 104.58 296.211 105.961 293.531 106.652 290.467 106.652 287.404 106.652 284.732 105.998 282.452 104.689 280.173 103.381 278.404 101.491 277.146 99.0197 275.887 96.5484 275.258 93.6225 275.258 90.2425ZM397.039 65.8738C400.869 65.8738 404.343 66.7733 407.461 68.5724 410.58 70.3713 413.033 72.8338 414.82 75.9593 416.607 79.0848 417.501 82.5194 417.501 86.2628 417.501 90.0064 416.607 93.4408 414.82 96.5665 413.033 99.692 410.58 102.154 407.461 103.953 404.343 105.752 400.869 106.652 397.039 106.652 393.21 106.652 389.736 105.752 386.617 103.953 383.499 102.154 381.046 99.692 379.259 96.5665 377.472 93.4408 376.578 90.0064 376.578 86.2628 376.578 82.5194 377.472 79.0848 379.259 75.9593 381.046 72.8338 383.499 70.3713 386.617 68.5724 389.736 66.7733 393.21 65.8738 397.039 65.8738ZM326.046 65.8738C329.584 65.8738 332.374 66.7006 334.416 68.3542 336.459 70.0078 337.863 71.9433 338.629 74.1602L332.119 76.886C331.717 75.6867 331.015 74.6782 330.012 73.8605 329.009 73.0427 327.724 72.6337 326.155 72.6337 324.551 72.6337 323.229 73.0062 322.189 73.7515 321.15 74.4965 320.63 75.4688 320.63 76.6681 320.63 77.8311 321.122 78.8213 322.107 79.639 323.092 80.4568 324.715 81.2473 326.976 82.0107L329.438 82.8285C332.83 83.9913 335.428 85.5268 337.234 87.4349 339.039 89.343 339.942 91.8418 339.942 94.931 339.942 97.4751 339.285 99.6283 337.972 101.391 336.659 103.154 334.972 104.471 332.912 105.343 330.851 106.216 328.727 106.652 326.538 106.652 323.11 106.652 320.083 105.689 317.457 103.763 314.831 101.836 312.989 99.1106 311.931 95.5852L318.879 92.8593C319.426 94.931 320.356 96.5846 321.669 97.8204 322.982 99.056 324.624 99.6739 326.593 99.6739 328.234 99.6739 329.638 99.2649 330.806 98.4471 331.973 97.6294 332.556 96.4938 332.556 95.04 332.556 93.5862 332 92.396 330.888 91.4692 329.775 90.5423 327.797 89.5521 324.952 88.498L322.545 87.6257C320.028 86.7536 317.876 85.4179 316.089 83.6188 314.302 81.8197 313.408 79.5575 313.408 76.8317 313.408 74.7962 313.937 72.9428 314.995 71.2708 316.053 69.5991 317.548 68.2815 319.481 67.3185 321.414 66.3553 323.602 65.8738 326.046 65.8738ZM1091.66 17.8814C1090.34 17.8814 1089.1 18.2174 1087.94 18.8899 1086.77 19.5622 1085.84 20.5163 1085.15 21.7519 1084.45 22.9877 1084.11 24.4052 1084.11 26.0042 1084.11 27.6034 1084.45 29.0207 1085.15 30.2565 1085.84 31.4923 1086.77 32.4553 1087.94 33.1459 1089.1 33.8363 1090.34 34.1816 1091.66 34.1816 1093.01 34.1816 1094.26 33.8363 1095.43 33.1459 1096.6 32.4553 1097.53 31.4923 1098.22 30.2565 1098.91 29.0207 1099.26 27.6034 1099.26 26.0042 1099.26 24.4052 1098.91 22.9877 1098.22 21.7519 1097.53 20.5163 1096.6 19.5622 1095.43 18.8899 1094.26 18.2174 1093.01 17.8814 1091.66 17.8814ZM867.168 17.8814C865.855 17.8814 864.615 18.2174 863.448 18.8899 862.281 19.5622 861.351 20.5163 860.658 21.7519 859.965 22.9877 859.618 24.4052 859.618 26.0042 859.618 27.6034 859.965 29.0207 860.658 30.2565 861.351 31.4923 862.281 32.4553 863.448 33.1459 864.615 33.8363 865.855 34.1816 867.168 34.1816 868.518 34.1816 869.776 33.8363 870.943 33.1459 872.11 32.4553 873.04 31.4923 873.733 30.2565 874.426 29.0207 874.773 27.6034 874.773 26.0042 874.773 24.4052 874.426 22.9877 873.733 21.7519 873.04 20.5163 872.11 19.5622 870.943 18.8899 869.776 18.2174 868.518 17.8814 867.168 17.8814ZM678.843 17.8814C677.53 17.8814 676.29 18.2174 675.123 18.8899 673.956 19.5622 673.026 20.5163 672.333 21.7519 671.64 22.9877 671.293 24.4052 671.293 26.0042 671.293 27.6034 671.64 29.0207 672.333 30.2565 673.026 31.4923 673.956 32.4553 675.123 33.1459 676.29 33.8363 677.53 34.1816 678.843 34.1816 680.193 34.1816 681.451 33.8363 682.618 33.1459 683.785 32.4553 684.715 31.4923 685.408 30.2565 686.101 29.0207 686.448 27.6034 686.448 26.0042 686.448 24.4052 686.101 22.9877 685.408 21.7519 684.715 20.5163 683.785 19.5622 682.618 18.8899 681.451 18.2174 680.193 17.8814 678.843 17.8814ZM643.939 17.8814C642.553 17.8814 641.277 18.2083 640.109 18.8627 638.942 19.5169 638.003 20.4617 637.292 21.6975 636.581 22.9331 636.225 24.3687 636.225 26.0042 636.225 27.6397 636.581 29.0844 637.292 30.3383 638.003 31.5922 638.942 32.5462 640.109 33.2003 641.277 33.8547 642.553 34.1816 643.939 34.1816 645.325 34.1816 646.602 33.8547 647.769 33.2003 648.936 32.5462 649.866 31.6013 650.559 30.3655 651.252 29.1299 651.598 27.6762 651.598 26.0042 651.598 24.3687 651.252 22.9331 650.559 21.6975 649.866 20.4617 648.936 19.5169 647.769 18.8627 646.602 18.2083 645.325 17.8814 643.939 17.8814ZM368.117 17.8814C366.731 17.8814 365.454 18.2083 364.287 18.8627 363.12 19.5169 362.181 20.4617 361.47 21.6975 360.758 22.9331 360.403 24.3687 360.403 26.0042 360.403 27.6397 360.758 29.0844 361.47 30.3383 362.181 31.5922 363.12 32.5462 364.287 33.2003 365.454 33.8547 366.731 34.1816 368.117 34.1816 369.503 34.1816 370.779 33.8547 371.946 33.2003 373.114 32.5462 374.044 31.6013 374.737 30.3655 375.43 29.1299 375.776 27.6762 375.776 26.0042 375.776 24.3687 375.43 22.9331 374.737 21.6975 374.044 20.4617 373.114 19.5169 371.946 18.8627 370.779 18.2083 369.503 17.8814 368.117 17.8814ZM333.924 17.8814C332.538 17.8814 331.262 18.2083 330.094 18.8627 328.927 19.5169 327.988 20.4617 327.277 21.6975 326.566 22.9331 326.21 24.3687 326.21 26.0042 326.21 27.6397 326.566 29.0844 327.277 30.3383 327.988 31.5922 328.927 32.5462 330.094 33.2003 331.262 33.8547 332.538 34.1816 333.924 34.1816 335.31 34.1816 336.586 33.8547 337.754 33.2003 338.921 32.5462 339.851 31.6013 340.544 30.3655 341.237 29.1299 341.583 27.6762 341.583 26.0042 341.583 24.3687 341.237 22.9331 340.544 21.6975 339.851 20.4617 338.921 19.5169 337.754 18.8627 336.586 18.2083 335.31 17.8814 333.924 17.8814ZM401.927 17.7178C399.884 17.7178 398.152 18.4084 396.729 19.7894 395.307 21.1705 394.596 23.0967 394.596 25.568 394.596 28.0396 395.307 29.9658 396.729 31.3468 398.152 32.7279 399.884 33.4185 401.927 33.4185 403.933 33.4185 405.647 32.7188 407.069 31.3197 408.492 29.9203 409.203 28.0031 409.203 25.568 409.203 23.0604 408.501 21.1249 407.097 19.762 405.692 18.3991 403.969 17.7178 401.927 17.7178ZM901.033 17.0636C899.319 17.0636 897.851 17.5632 896.629 18.5627 895.407 19.5622 894.522 20.916 893.975 22.6242L907.871 22.6242C907.798 21.7519 907.479 20.8888 906.914 20.0346 906.349 19.1806 905.564 18.4719 904.561 17.9086 903.558 17.3453 902.382 17.0636 901.033 17.0636ZM711.832 17.0636C710.118 17.0636 708.65 17.5632 707.428 18.5627 706.207 19.5622 705.322 20.916 704.775 22.6242L718.671 22.6242C718.598 21.7519 718.279 20.8888 717.714 20.0346 717.148 19.1806 716.364 18.4719 715.361 17.9086 714.358 17.3453 713.182 17.0636 711.832 17.0636ZM597.856 17.0636C596.142 17.0636 594.674 17.5632 593.452 18.5627 592.23 19.5622 591.346 20.916 590.799 22.6242L604.695 22.6242C604.622 21.7519 604.303 20.8888 603.737 20.0346 603.172 19.1806 602.388 18.4719 601.385 17.9086 600.382 17.3453 599.206 17.0636 597.856 17.0636ZM534.03 17.0636C532.315 17.0636 530.847 17.5632 529.625 18.5627 528.404 19.5622 527.519 20.916 526.972 22.6242L540.868 22.6242C540.795 21.7519 540.476 20.8888 539.911 20.0346 539.345 19.1806 538.561 18.4719 537.558 17.9086 536.555 17.3453 535.379 17.0636 534.03 17.0636ZM449.687 17.0636C447.973 17.0636 446.505 17.5632 445.283 18.5627 444.061 19.5622 443.177 20.916 442.63 22.6242L456.526 22.6242C456.453 21.7519 456.134 20.8888 455.568 20.0346 455.003 19.1806 454.219 18.4719 453.216 17.9086 452.213 17.3453 451.037 17.0636 449.687 17.0636ZM1045.24 12.1026 1052.41 12.1026 1052.41 28.1305C1052.41 30.0202 1052.87 31.5014 1053.78 32.5733 1054.69 33.6455 1055.89 34.1816 1057.39 34.1816 1059.43 34.1816 1061.06 33.4366 1062.26 31.9466 1063.46 30.4564 1064.06 28.5664 1064.06 26.2768L1064.06 12.1026 1071.23 12.1026 1071.23 39.9058 1064.5 39.9058 1064.5 36.4169 1064.06 36.4169C1063.23 37.7617 1062.05 38.8246 1060.54 39.6061 1059.02 40.3873 1057.35 40.7782 1055.53 40.7782 1052.17 40.7782 1049.62 39.7422 1047.87 37.6708 1046.12 35.5992 1045.24 32.7098 1045.24 29.0026ZM821.851 12.1026 829.018 12.1026 829.018 28.1305C829.018 30.0202 829.474 31.5014 830.386 32.5733 831.298 33.6455 832.501 34.1816 833.996 34.1816 836.039 34.1816 837.662 33.4366 838.866 31.9466 840.069 30.4564 840.671 28.5664 840.671 26.2768L840.671 12.1026 847.838 12.1026 847.838 39.9058 841.109 39.9058 841.109 36.4169 840.671 36.4169C839.832 37.7617 838.656 38.8246 837.142 39.6061 835.629 40.3873 833.96 40.7782 832.136 40.7782 828.781 40.7782 826.228 39.7422 824.477 37.6708 822.727 35.5992 821.851 32.7098 821.851 29.0026ZM549.968 12.1026 558.12 12.1026 565.177 30.2019 565.615 30.2019 572.782 12.1026 580.824 12.1026 568.897 39.9058 561.785 39.9058ZM1121.69 11.2304C1127.45 11.2304 1131.3 13.2475 1133.23 17.2816L1127.11 19.953C1126.01 17.9904 1124.26 17.009 1121.85 17.009 1120.61 17.009 1119.63 17.2363 1118.9 17.6906 1118.17 18.1449 1117.81 18.7172 1117.81 19.4079 1117.81 20.7162 1119.05 21.6975 1121.53 22.3517L1125.63 23.333C1128.4 24.0234 1130.49 25.0775 1131.89 26.495 1133.3 27.9123 1134 29.6567 1134 31.7284 1134 33.5094 1133.48 35.0812 1132.44 36.4441 1131.4 37.807 1129.98 38.8701 1128.17 39.6333 1126.37 40.3966 1124.37 40.7782 1122.18 40.7782 1118.79 40.7782 1116.05 40.0876 1113.95 38.7065 1111.85 37.3255 1110.38 35.5264 1109.55 33.3095L1115.95 30.5291C1116.53 31.8374 1117.36 32.8278 1118.44 33.5003 1119.51 34.1726 1120.76 34.5088 1122.18 34.5088 1123.5 34.5088 1124.59 34.2997 1125.47 33.8819 1126.34 33.4638 1126.78 32.7825 1126.78 31.8374 1126.78 30.9288 1126.38 30.2475 1125.57 29.7932 1124.77 29.3389 1123.57 28.9299 1121.96 28.5664L1118.68 27.8579C1116.42 27.3127 1114.54 26.3223 1113.05 24.8867 1111.55 23.451 1110.8 21.661 1110.8 19.5169 1110.8 17.9176 1111.29 16.482 1112.25 15.2099 1113.22 13.9379 1114.53 12.9568 1116.19 12.2662 1117.85 11.5755 1119.68 11.2304 1121.69 11.2304ZM935.791 11.2304C939.146 11.2304 941.699 12.248 943.45 14.2832 945.201 16.3186 946.076 19.0988 946.076 22.6242L946.076 39.9058 938.909 39.9058 938.909 23.4966C938.909 21.7156 938.453 20.3346 937.542 19.3533 936.63 18.3719 935.353 17.8814 933.712 17.8814 931.779 17.8814 930.22 18.6264 929.035 20.1164 927.849 21.6067 927.256 23.4782 927.256 25.7316L927.256 39.9058 920.09 39.9058 920.09 12.1026 926.819 12.1026 926.819 15.5917 927.256 15.5917C928.095 14.247 929.281 13.1838 930.812 12.4023 932.344 11.6211 934.004 11.2304 935.791 11.2304ZM900.978 11.2304C903.859 11.2304 906.339 11.8481 908.418 13.0839 910.497 14.3197 912.075 16.0096 913.151 18.154 914.227 20.2981 914.765 22.6789 914.765 25.2954 914.765 26.1316 914.71 26.9309 914.6 27.6943L893.647 27.6943C894.012 29.9112 894.896 31.5922 896.301 32.7369 897.705 33.8819 899.392 34.4542 901.361 34.4542 903.002 34.4542 904.416 34.0998 905.601 33.3911 906.786 32.6826 907.725 31.7284 908.418 30.5291L914.217 33.3639C911.373 38.3068 907.051 40.7782 901.252 40.7782 898.48 40.7782 895.981 40.1422 893.757 38.8701 891.532 37.5981 889.79 35.8443 888.532 33.6093 887.274 31.374 886.644 28.8574 886.644 26.0588 886.644 23.4057 887.265 20.9432 888.504 18.6717 889.745 16.4002 891.459 14.5923 893.647 13.2475 895.836 11.9027 898.279 11.2304 900.978 11.2304ZM746.098 11.2304C747.375 11.2304 748.542 11.4484 749.6 11.8846L749.6 18.9717C748.615 18.6083 747.785 18.3447 747.11 18.1811 746.435 18.0175 745.715 17.9358 744.949 17.9358 742.834 17.9358 741.156 18.7008 739.916 20.2311 738.676 21.7612 738.056 23.6924 738.056 26.0247L738.056 39.9058 730.889 39.9058 730.889 12.1026 737.618 12.1026 737.618 15.8097 738.056 15.8097C738.749 14.5014 739.825 13.4111 741.284 12.5387 742.743 11.6664 744.347 11.2304 746.098 11.2304ZM711.778 11.2304C714.659 11.2304 717.139 11.8481 719.218 13.0839 721.297 14.3197 722.874 16.0096 723.95 18.154 725.026 20.2981 725.564 22.6789 725.564 25.2954 725.564 26.1316 725.51 26.9309 725.4 27.6943L704.447 27.6943C704.812 29.9112 705.696 31.5922 707.1 32.7369 708.504 33.8819 710.191 34.4542 712.161 34.4542 713.802 34.4542 715.215 34.0998 716.401 33.3911 717.586 32.6826 718.525 31.7284 719.218 30.5291L725.017 33.3639C722.172 38.3068 717.85 40.7782 712.051 40.7782 709.279 40.7782 706.781 40.1422 704.556 38.8701 702.331 37.5981 700.59 35.8443 699.332 33.6093 698.073 31.374 697.444 28.8574 697.444 26.0588 697.444 23.4057 698.064 20.9432 699.304 18.6717 700.544 16.4002 702.258 14.5923 704.447 13.2475 706.635 11.9027 709.079 11.2304 711.778 11.2304ZM680.102 11.2304C682.618 11.2304 684.907 11.8572 686.967 13.1111 689.028 14.365 690.642 16.1185 691.809 18.3719 692.976 20.6253 693.56 23.1694 693.56 26.0042 693.56 28.8755 692.976 31.4286 691.809 33.6637 690.642 35.8989 689.028 37.6434 686.967 38.8973 684.907 40.1512 682.618 40.7782 680.102 40.7782 678.205 40.7782 676.518 40.3783 675.041 39.5789 673.564 38.7793 672.461 37.7798 671.731 36.5805L671.293 36.5805 671.731 40.5056 671.731 51.6815 664.564 51.6815 664.564 12.1026 671.293 12.1026 671.293 15.4825 671.731 15.4825C672.497 14.2832 673.609 13.2747 675.068 12.4569 676.527 11.6392 678.205 11.2304 680.102 11.2304ZM643.939 11.2304C646.784 11.2304 649.337 11.8755 651.598 13.1657 653.86 14.4559 655.619 16.2278 656.878 18.4809 658.136 20.7343 658.765 23.2421 658.765 26.0042 658.765 28.8028 658.136 31.3197 656.878 33.5547 655.619 35.7899 653.86 37.5525 651.598 38.8427 649.337 40.1331 646.784 40.7782 643.939 40.7782 641.058 40.7782 638.486 40.1331 636.225 38.8427 633.964 37.5525 632.204 35.7899 630.946 33.5547 629.688 31.3197 629.058 28.8028 629.058 26.0042 629.058 23.2421 629.688 20.7343 630.946 18.4809 632.204 16.2278 633.964 14.4559 636.225 13.1657 638.486 11.8755 641.058 11.2304 643.939 11.2304ZM597.802 11.2304C600.683 11.2304 603.163 11.8481 605.242 13.0839 607.321 14.3197 608.898 16.0096 609.974 18.154 611.05 20.2981 611.588 22.6789 611.588 25.2954 611.588 26.1316 611.533 26.9309 611.424 27.6943L590.471 27.6943C590.835 29.9112 591.72 31.5922 593.124 32.7369 594.528 33.8819 596.215 34.4542 598.184 34.4542 599.826 34.4542 601.239 34.0998 602.424 33.3911 603.61 32.6826 604.549 31.7284 605.242 30.5291L611.041 33.3639C608.196 38.3068 603.874 40.7782 598.075 40.7782 595.303 40.7782 592.805 40.1422 590.58 38.8701 588.355 37.5981 586.614 35.8443 585.355 33.6093 584.097 31.374 583.468 28.8574 583.468 26.0588 583.468 23.4057 584.088 20.9432 585.328 18.6717 586.568 16.4002 588.282 14.5923 590.471 13.2475 592.659 11.9027 595.102 11.2304 597.802 11.2304ZM533.975 11.2304C536.856 11.2304 539.336 11.8481 541.415 13.0839 543.494 14.3197 545.072 16.0096 546.148 18.154 547.223 20.2981 547.761 22.6789 547.761 25.2954 547.761 26.1316 547.707 26.9309 547.597 27.6943L526.644 27.6943C527.009 29.9112 527.893 31.5922 529.297 32.7369 530.702 33.8819 532.388 34.4542 534.358 34.4542 535.999 34.4542 537.412 34.0998 538.598 33.3911 539.783 32.6826 540.722 31.7284 541.415 30.5291L547.214 33.3639C544.37 38.3068 540.048 40.7782 534.248 40.7782 531.477 40.7782 528.978 40.1422 526.753 38.8701 524.528 37.5981 522.787 35.8443 521.529 33.6093 520.271 31.374 519.641 28.8574 519.641 26.0588 519.641 23.4057 520.261 20.9432 521.501 18.6717 522.741 16.4002 524.456 14.5923 526.644 13.2475 528.832 11.9027 531.276 11.2304 533.975 11.2304ZM449.633 11.2304C452.514 11.2304 454.994 11.8481 457.073 13.0839 459.152 14.3197 460.729 16.0096 461.805 18.154 462.881 20.2981 463.419 22.6789 463.419 25.2954 463.419 26.1316 463.364 26.9309 463.255 27.6943L442.302 27.6943C442.666 29.9112 443.551 31.5922 444.955 32.7369 446.359 33.8819 448.046 34.4542 450.015 34.4542 451.657 34.4542 453.07 34.0998 454.255 33.3911 455.441 32.6826 456.38 31.7284 457.073 30.5291L462.872 33.3639C460.027 38.3068 455.705 40.7782 449.906 40.7782 447.134 40.7782 444.636 40.1422 442.411 38.8701 440.186 37.5981 438.445 35.8443 437.186 33.6093 435.928 31.374 435.299 28.8574 435.299 26.0588 435.299 23.4057 435.919 20.9432 437.159 18.6717 438.399 16.4002 440.113 14.5923 442.302 13.2475 444.49 11.9027 446.934 11.2304 449.633 11.2304ZM400.45 11.2304C402.273 11.2304 403.896 11.5574 405.319 12.2115 406.741 12.8659 407.89 13.8108 408.765 15.0466L409.203 15.0466 409.203 12.1026 416.096 12.1026 416.096 37.9978C416.096 40.978 415.513 43.5584 414.346 45.739 413.178 47.9197 411.519 49.6007 409.367 50.7819 407.215 51.9631 404.699 52.5536 401.817 52.5536 398.28 52.5536 395.344 51.7632 393.009 50.1821 390.675 48.6013 389.107 46.7023 388.304 44.4854L395.033 41.7595C395.617 43.1406 396.51 44.2309 397.714 45.0305 398.918 45.8299 400.286 46.2298 401.817 46.2298 404.078 46.2298 405.875 45.5392 407.206 44.1582 408.537 42.7771 409.203 40.8144 409.203 38.2704L409.203 36.0897 408.765 36.0897C407.89 37.3255 406.741 38.2704 405.319 38.9245 403.896 39.5789 402.273 39.9058 400.45 39.9058 398.152 39.9058 396.009 39.3154 394.021 38.1342 392.034 36.953 390.438 35.281 389.234 33.1185 388.031 30.9562 387.429 28.4393 387.429 25.568 387.429 22.697 388.031 20.1801 389.234 18.0175 390.438 15.855 392.034 14.1833 394.021 13.0021 396.009 11.8209 398.152 11.2304 400.45 11.2304ZM368.117 11.2304C370.962 11.2304 373.515 11.8755 375.776 13.1657 378.037 14.4559 379.797 16.2278 381.055 18.4809 382.314 20.7343 382.943 23.2421 382.943 26.0042 382.943 28.8028 382.314 31.3197 381.055 33.5547 379.797 35.7899 378.037 37.5525 375.776 38.8427 373.515 40.1331 370.962 40.7782 368.117 40.7782 365.235 40.7782 362.664 40.1331 360.403 38.8427 358.142 37.5525 356.382 35.7899 355.124 33.5547 353.865 31.3197 353.236 28.8028 353.236 26.0042 353.236 23.2421 353.865 20.7343 355.124 18.4809 356.382 16.2278 358.142 14.4559 360.403 13.1657 362.664 11.8755 365.235 11.2304 368.117 11.2304ZM333.924 11.2304C336.769 11.2304 339.322 11.8755 341.583 13.1657 343.845 14.4559 345.604 16.2278 346.863 18.4809 348.121 20.7343 348.75 23.2421 348.75 26.0042 348.75 28.8028 348.121 31.3197 346.863 33.5547 345.604 35.7899 343.845 37.5525 341.583 38.8427 339.322 40.1331 336.769 40.7782 333.924 40.7782 331.043 40.7782 328.471 40.1331 326.21 38.8427 323.949 37.5525 322.189 35.7899 320.931 33.5547 319.673 31.3197 319.043 28.8028 319.043 26.0042 319.043 23.2421 319.673 20.7343 320.931 18.4809 322.189 16.2278 323.949 14.4559 326.21 13.1657 328.471 11.8755 331.043 11.2304 333.924 11.2304ZM488.512 7.85024 488.512 32.9277 494.038 32.9277C498.268 32.9277 501.496 31.8102 503.721 29.5749 505.946 27.3399 507.058 24.2779 507.058 20.389 507.058 16.5003 505.946 13.4383 503.721 11.203 501.496 8.96799 498.268 7.85024 494.038 7.85024ZM954.903 4.25232 962.069 4.25232 962.069 12.1026 968.908 12.1026 968.908 18.2083 962.069 18.2083 962.069 30.0366C962.069 31.494 962.379 32.5402 962.999 33.1757 963.51 33.7736 964.385 34.0727 965.625 34.0727 966.318 34.0727 966.893 33.9818 967.349 33.8001 967.805 33.6184 968.397 33.3095 969.126 32.8733L969.126 39.8515C967.558 40.4691 965.899 40.7782 964.148 40.7782 962.762 40.7782 961.486 40.565 960.319 40.1388 959.151 39.7127 958.203 39.1291 957.474 38.3879 955.76 36.72 954.903 34.3481 954.903 31.272L954.903 18.2083 950.033 18.2083 950.033 12.1026 954.903 12.1026ZM802.174 4.25232 809.341 4.25232 809.341 12.1026 816.18 12.1026 816.18 18.2083 809.341 18.2083 809.341 30.0366C809.341 31.494 809.651 32.5402 810.271 33.1757 810.782 33.7736 811.657 34.0727 812.897 34.0727 813.59 34.0727 814.165 33.9818 814.621 33.8001 815.077 33.6184 815.669 33.3095 816.399 32.8733L816.399 39.8515C814.83 40.4691 813.171 40.7782 811.42 40.7782 810.034 40.7782 808.758 40.565 807.591 40.1388 806.423 39.7127 805.475 39.1291 804.746 38.3879 803.032 36.72 802.174 34.3481 802.174 31.272L802.174 18.2083 797.305 18.2083 797.305 12.1026 802.174 12.1026ZM1077.38 0.872355 1084.54 0.872355 1084.54 11.5574 1084.11 15.4825 1084.54 15.4825C1085.31 14.2832 1086.42 13.2747 1087.88 12.4569 1089.34 11.6392 1091.02 11.2304 1092.91 11.2304 1095.43 11.2304 1097.72 11.8572 1099.78 13.1111 1101.84 14.365 1103.45 16.1185 1104.62 18.3719 1105.79 20.6253 1106.37 23.1694 1106.37 26.0042 1106.37 28.8755 1105.79 31.4286 1104.62 33.6637 1103.45 35.8989 1101.84 37.6434 1099.78 38.8973 1097.72 40.1512 1095.43 40.7782 1092.91 40.7782 1091.02 40.7782 1089.33 40.3783 1087.85 39.5789 1086.38 38.7793 1085.27 37.7798 1084.54 36.5805L1084.11 36.5805 1084.11 39.9058 1077.38 39.9058ZM1031.79 0.872355 1038.95 0.872355 1038.95 39.9058 1031.79 39.9058ZM874.335 0.872355 881.447 0.872355 881.447 39.9058 874.773 39.9058 874.773 36.5805 874.335 36.5805C873.606 37.7798 872.502 38.7793 871.025 39.5789 869.548 40.3783 867.861 40.7782 865.965 40.7782 863.448 40.7782 861.159 40.1512 859.099 38.8973 857.038 37.6434 855.415 35.8989 854.229 33.6637 853.044 31.4286 852.452 28.8755 852.452 26.0042 852.452 23.1694 853.044 20.6253 854.229 18.3719 855.415 16.1185 857.038 14.365 859.099 13.1111 861.159 11.8572 863.448 11.2304 865.965 11.2304 867.861 11.2304 869.539 11.6392 870.998 12.4569 872.457 13.2747 873.569 14.2832 874.335 15.4825L874.773 15.4825 874.335 11.5574ZM616.913 0.872355 624.08 0.872355 624.08 39.9058 616.913 39.9058ZM481.126 0.872355 494.366 0.872355C498.451 0.872355 502.007 1.6901 505.034 3.32559 508.061 4.96107 510.395 7.25071 512.037 10.1945 513.678 13.1385 514.499 16.5366 514.499 20.389 514.499 24.2416 513.678 27.6397 512.037 30.5837 510.395 33.5275 508.061 35.8171 505.034 37.4526 502.007 39.0881 498.451 39.9058 494.366 39.9058L481.126 39.9058ZM423.154 0.872355 430.32 0.872355 430.32 39.9058 423.154 39.9058ZM1010.29 0C1016.19 0 1021.08 2.12604 1024.95 6.37835L1019.75 11.3938C1017.23 8.45002 1014.1 6.97813 1010.34 6.97813 1007.9 6.97813 1005.67 7.53235 1003.67 8.6408 1001.66 9.74925 1000.08 11.3213 998.934 13.3565 997.785 15.3917 997.21 17.7359 997.21 20.389 997.21 23.0423 997.785 25.3863 998.934 27.4217 1000.08 29.4569 1001.66 31.0287 1003.67 32.1374 1005.67 33.2458 1007.9 33.8001 1010.34 33.8001 1014.46 33.8001 1017.91 32.0919 1020.68 28.6756L1025.93 33.6365C1024 35.9626 1021.71 37.7343 1019.07 38.9519 1016.42 40.1694 1013.5 40.7782 1010.29 40.7782 1006.49 40.7782 1003.03 39.8787 999.891 38.0796 996.754 36.2805 994.283 33.8273 992.478 30.7199 990.673 27.6125 989.77 24.1689 989.77 20.389 989.77 16.6093 990.673 13.1657 992.478 10.0583 994.283 6.9507 996.754 4.49747 999.891 2.69863 1003.03 0.899542 1006.49 0 1010.29 0ZM779.671 0C783.209 0 785.999 0.826806 788.041 2.48042 790.084 4.13403 791.488 6.06952 792.254 8.28642L785.744 11.0122C785.342 9.81293 784.64 8.8044 783.637 7.98665 782.634 7.16891 781.349 6.75992 779.78 6.75992 778.176 6.75992 776.854 7.13242 775.814 7.87767 774.775 8.62268 774.255 9.59496 774.255 10.7943 774.255 11.9573 774.747 12.9475 775.732 13.7652 776.717 14.583 778.34 15.3735 780.601 16.1369L783.063 16.9546C786.455 18.1175 789.054 19.653 790.859 21.5611 792.664 23.4692 793.567 25.968 793.567 29.0572 793.567 31.6013 792.911 33.7545 791.597 35.5174 790.284 37.28 788.598 38.5975 786.537 39.4697 784.476 40.342 782.352 40.7782 780.163 40.7782 776.735 40.7782 773.708 39.815 771.082 37.8888 768.456 35.9626 766.614 33.2368 765.556 29.7114L772.504 26.9855C773.051 29.0572 773.981 30.7108 775.294 31.9466 776.607 33.1822 778.249 33.8001 780.218 33.8001 781.859 33.8001 783.264 33.3911 784.431 32.5733 785.598 31.7556 786.181 30.62 786.181 29.1662 786.181 27.7124 785.625 26.5222 784.513 25.5954 783.4 24.6685 781.422 23.6783 778.577 22.6242L776.17 21.7519C773.653 20.8798 771.501 19.5441 769.714 17.745 767.927 15.9459 767.033 13.6837 767.033 10.9579 767.033 8.92245 767.562 7.06899 768.62 5.39701 769.677 3.72528 771.173 2.40768 773.106 1.4447 775.039 0.481489 777.227 0 779.671 0ZM294.68 0C297.743 0 300.543 0.5361 303.078 1.6083 305.612 2.68026 307.791 4.1977 309.615 6.16038L304.527 11.1212C303.214 9.74019 301.764 8.70448 300.178 8.01384 298.591 7.32344 296.74 6.97813 294.625 6.97813 292.218 6.97813 290.011 7.53235 288.005 8.6408 285.999 9.74925 284.404 11.3304 283.218 13.3837 282.033 15.4372 281.44 17.7724 281.44 20.389 281.44 23.0058 282.042 25.341 283.246 27.3943 284.449 29.4478 286.063 31.0287 288.087 32.1374 290.111 33.2458 292.327 33.8001 294.734 33.8001 298.382 33.8001 301.372 32.7279 303.707 30.5837 304.436 29.9293 305.074 29.0935 305.622 28.0759 306.169 27.0583 306.57 25.9498 306.825 24.7503L294.516 24.7503 294.516 18.4809 313.718 18.4809C313.974 19.4987 314.101 20.6434 314.101 21.9155 314.101 24.4961 313.709 26.8947 312.925 29.1116 312.141 31.3287 310.946 33.273 309.342 34.945 307.591 36.8347 305.476 38.2794 302.995 39.2789 300.515 40.2784 297.743 40.7782 294.68 40.7782 290.923 40.7782 287.467 39.8968 284.312 38.1342 281.158 36.3714 278.65 33.9362 276.79 30.8289 274.93 27.7215 274 24.2416 274 20.389 274 16.5366 274.93 13.0567 276.79 9.9491 278.65 6.84172 281.158 4.40661 284.312 2.64401 287.467 0.881418 290.923 0 294.68 0Z" fill="#595959" fill-rule="evenodd"/><path d="M161.543 55.9814 196.886 76.3632 150.216 104.059C141.745 109.086 130.776 106.338 125.717 97.9199 120.657 89.5021 123.423 78.6029 131.895 73.5757ZM20.1173 36.5079C22.4198 36.797 24.7033 37.5395 26.8367 38.7699L87.1334 73.5418C95.6675 78.4633 98.5708 89.3273 93.6179 97.8073L93.6178 97.8073C88.6651 106.287 77.7317 109.172 69.1977 104.251L8.90111 69.4786C2.50053 65.7877-0.732508 58.7539 0.140191 51.8902L2.41659 45.2133 7.12149 39.937C10.8312 37.1649 15.5123 35.9297 20.1173 36.5079ZM143.083 0.513442C145.385 0.802401 147.669 1.54491 149.802 2.77528L210.099 37.5472C218.633 42.4687 221.536 53.3327 216.583 61.8127L216.583 61.8127C211.631 70.2927 200.697 73.1774 192.163 68.2561L131.867 33.484C125.466 29.7931 122.233 22.7593 123.106 15.8954L125.382 9.21873 130.087 3.94235C133.797 1.17033 138.478-0.0647717 143.083 0.513442ZM78.7821 0.0276537C84.5085 0.345449 89.9788 3.39194 93.141 8.65294L93.1408 8.65309C98.2002 17.0708 95.4342 27.97 86.9629 32.9972L57.0049 50.7753 21.6618 30.3936 68.6415 2.51397C71.8183 0.628789 75.3463-0.162965 78.7821 0.0276537Z" fill="#595959" fill-rule="evenodd"/></g></svg>